<?xml version="1.0" standalone="no"?>
<!DOCTYPE svg PUBLIC "-//W3C//DTD SVG 1.1//EN" "http://www.w3.org/Graphics/SVG/1.1/DTD/svg11.dtd" >
<svg xmlns="http://www.w3.org/2000/svg">
<metadata>Generated by IcoMoon</metadata>
<defs>
<font id="roifont" horiz-adv-x="1024">
<font-face units-per-em="1024" ascent="960" descent="-64" />
<missing-glyph horiz-adv-x="1024" />
<glyph unicode="&#x20;" horiz-adv-x="512" d="" />
<glyph unicode="&#xe900;" glyph-name="document" d="M322.954 243.2h409.6v-102.4h-409.6zM322.954 448h409.6v-102.4h-409.6zM630.154 960h-409.6c-56.554 0-102.4-45.846-102.4-102.4v0-819.2c0 0 0-0.001 0-0.001 0-56.36 45.532-102.086 101.819-102.398h614.981c56.554 0 102.4 45.846 102.4 102.4v0 614.4zM834.954 38.4h-614.4v819.2h358.4v-256h256z" />
<glyph unicode="&#xe901;" glyph-name="filter" horiz-adv-x="999" d="M956.022 960h-912.935c-16.652-0.007-31.082-9.51-38.169-23.388l-0.112-0.242c-2.939-5.702-4.661-12.443-4.661-19.586 0-9.499 3.046-18.287 8.215-25.44l-0.088 0.128 334.375-471.198v-0.473c11.684-15.643 18.717-35.354 18.747-56.707v-384.165c0-0.071-0.001-0.154-0.001-0.238 0-23.579 19.114-42.693 42.693-42.693 0.139 0 0.277 0.001 0.416 0.002h-0.021c6.086 0.009 11.878 1.253 17.144 3.496l-0.287-0.109 187.943 71.68c16.433 5.492 28.068 20.741 28.068 38.707 0 0.515-0.010 1.028-0.029 1.539l0.002-0.074v311.847c0.030 21.36 7.063 41.071 18.927 56.966l-0.18-0.252v0.473l334.769 471.198c5.053 7.012 8.081 15.776 8.081 25.247 0 7.169-1.735 13.933-4.808 19.895l0.114-0.244c-7.188 14.097-21.582 23.593-38.198 23.631h-0.005zM614.164 450.599c-17.959-24.163-28.771-54.569-28.83-87.499v-305.639l-171.559-65.378v371.003c-0.052 32.944-10.865 63.352-29.111 87.909l-324.484 457.017h878.671z" />
<glyph unicode="&#xe902;" glyph-name="bank" horiz-adv-x="1031" d="M1018.063 642.117l-340.735 219.212c-2.219 1.423-4.927 2.269-7.832 2.269-8.092 0-14.651-6.56-14.651-14.651 0-5.11 2.616-9.609 6.581-12.23l0.055-0.034 335.738-216.008h-78.253l-382.169 245.909c-6.042 3.912-13.428 6.238-21.357 6.238s-15.315-2.326-21.513-6.332l0.156 0.094-382.297-245.909h-78.296l481.865 310.066 68.344-43.911c2.26-1.496 5.033-2.387 8.015-2.387 8.092 0 14.651 6.56 14.651 14.651 0 5.186-2.695 9.743-6.761 12.347l-0.059 0.035-68.344 43.911c-4.474 2.91-9.948 4.641-15.826 4.641s-11.352-1.731-15.94-4.71l0.114 0.069-486.734-313.27c-7.829-4.949-12.953-13.559-12.953-23.366 0-15.216 12.335-27.551 27.551-27.551 0.064 0 0.127 0 0.191 0.001h73.844v-94.656c0.013-11.604 8.169-21.299 19.061-23.677l0.16-0.029v-25.629c0-13.4 10.862-24.262 24.262-24.262h2.008v-179.402c0-8.092 6.56-14.651 14.651-14.651s14.651 6.56 14.651 14.651v0 193.882c0 8.092-6.56 14.651-14.651 14.651v0h-11.618v20.204h103.669v-20.204h-11.576c-8.092 0-14.651-6.56-14.651-14.651v0-323.479c0-8.092 6.56-14.651 14.651-14.651v0h11.618v-21.955h-103.711v21.955h11.618c8.092 0 14.651 6.56 14.651 14.651v0 37.418c0 8.092-6.56 14.651-14.651 14.651s-14.651-6.56-14.651-14.651v-22.767h-2.008c0 0 0 0 0 0-13.384 0-24.238-10.838-24.262-24.217v-25.631c-11.052-2.408-19.209-12.103-19.222-23.705v-29.56h-51.898c-16.197-0.024-29.321-13.148-29.345-29.343v-30.799c0.024-16.197 13.148-29.321 29.343-29.345h931.61c16.197 0.024 29.321 13.148 29.345 29.343v30.799c-0.024 16.197-13.148 29.321-29.343 29.345h-51.858v29.559c-0.013 11.604-8.169 21.299-19.061 23.677l-0.16 0.029v25.629c-0.024 13.381-10.877 24.219-24.262 24.219 0 0 0 0 0 0h-2.008v294.39h2.008c13.4 0 24.262 10.862 24.262 24.262v0 25.629c11.052 2.408 19.209 12.103 19.222 23.705v94.614h73.854c15.204 0.016 27.523 12.345 27.523 27.551 0 9.666-4.978 18.169-12.51 23.087l-0.106 0.065zM509.8 841.937c1.576 1.023 3.504 1.632 5.574 1.632s3.998-0.608 5.615-1.656l-0.040 0.024 343.896-221.262h-698.941zM130.707 591.201h769.292v-35.838h-769.292zM596.297 78.624v25.629c-0.024 13.381-10.877 24.219-24.262 24.219 0 0 0 0 0 0h-1.794v294.518h2.136c13.4 0 24.262 10.862 24.262 24.262v0 25.629c11.052 2.408 19.209 12.103 19.222 23.705v29.688h112.81v-29.559c0.013-11.604 8.169-21.299 19.061-23.677l0.16-0.029v-25.629c0-13.4 10.862-24.262 24.262-24.262v0h2.008v-294.219h-2.008c0 0 0 0 0 0-13.384 0-24.238-10.838-24.262-24.217v-25.631c-11.052-2.408-19.209-12.103-19.222-23.705v-29.56h-112.938v29.559c-0.221 11.427-8.309 20.904-19.061 23.25l-0.16 0.029zM282.729 78.624v25.629c-0.024 13.381-10.877 24.219-24.262 24.219 0 0 0 0 0 0h-1.794v294.518h2.008c13.4 0 24.262 10.862 24.262 24.262v0 25.629c11.052 2.408 19.209 12.103 19.222 23.705v29.688h112.81v-29.559c0.013-11.604 8.169-21.299 19.061-23.677l0.16-0.029v-25.629c0-13.4 10.862-24.262 24.262-24.262v0h2.008v-294.219h-2.008c0 0 0 0 0 0-13.384 0-24.238-10.838-24.262-24.217v-25.631c-11.052-2.408-19.209-12.103-19.222-23.705v-29.56h-112.81v29.559c-0.221 11.427-8.309 20.904-19.061 23.25l-0.16 0.029zM555.377 99.341h11.618v-21.955h-103.498v21.955h11.618c8.092 0 14.651 6.56 14.651 14.651v0 323.436c0 8.092-6.56 14.651-14.651 14.651v0h-11.618v20.204h103.711v-20.204h-11.618c-8.092 0-14.651-6.56-14.651-14.651v0-323.479c0.12-7.999 6.633-14.438 14.65-14.438 0.001 0 0.001 0 0.002 0v0zM448.59 501.628h-4.357v24.646h142.24v-24.518h-137.584zM443.977 48.852c1.351-0.458 2.908-0.724 4.527-0.726h133.271c1.667 0.002 3.268 0.284 4.759 0.8l-0.103-0.031v-23.536h-142.197zM135.021 501.628h-4.314v24.646h142.197v-24.518h-137.584zM130.408 48.852c1.375-0.48 2.96-0.761 4.61-0.769h133.273c1.653 0.007 3.238 0.288 4.716 0.8l-0.103-0.031v-23.493h-142.197v23.493zM980.944-3.986v-30.883h-931.693v30.883zM895.087 48.126c1.667 0.003 3.268 0.285 4.759 0.8l-0.103-0.031v-23.493h-141.898v23.493c1.356-0.46 2.918-0.726 4.542-0.726 0.010 0 0.020 0 0.030 0h-0.002zM788.3 452.165h-11.618v20.204h104.096v-20.204h-11.618c-8.092 0-14.651-6.56-14.651-14.651v0-323.479c0-8.092 6.56-14.651 14.651-14.651h11.618v-21.955h-103.711v21.955h11.618c8.092 0 14.651 6.56 14.651 14.651v0 323.393c0.001 0.064 0.002 0.138 0.002 0.214 0 8.092-6.56 14.651-14.651 14.651-0.001 0-0.001 0-0.002 0v0zM899.615 501.671h-141.77v24.604h142.197v-24.518zM521.547 735.534v45.705c15.762-1.111 21.614-8.543 27.038-8.543 6.749 0 9.91 8.543 9.91 12.814 0 11.020-21.614 15.762-36.948 16.232v6.194c0 2.691-3.374 5.168-6.749 5.168-0.193 0.022-0.417 0.035-0.644 0.035-3.020 0-5.514-2.255-5.889-5.174l-0.003-0.030v-6.535c-0.267 0.006-0.582 0.010-0.897 0.010-23.095 0-41.818-18.722-41.818-41.818 0-0.018 0-0.037 0-0.055v0.003c0-28.832 22.511-36.948 42.715-44.124v-52.71c-22.981 1.794-29.046 17.556-36.478 17.556-5.638 0-10.337-7.432-10.337-12.814 0-11.020 18.923-26.141 46.986-26.569v0-6.962c0.378-2.948 2.871-5.203 5.892-5.203 0.227 0 0.45 0.013 0.671 0.037l-0.027-0.002c3.374 0 6.749 2.477 6.749 5.168v7.432c22.961 1.389 41.057 20.35 41.057 43.537 0 1.003-0.034 1.999-0.101 2.985l0.007-0.134c-0.128 30.498-21.528 40.622-41.134 47.798zM509.629 739.806c-11.917 4.485-21.614 9.226-21.614 22.084 0 11.704 9.013 17.342 21.614 18.923zM520.223 662.919v47.627c11.378-2.983 19.663-13.103 19.819-25.184v-0.018c0.015-0.297 0.023-0.644 0.023-0.993 0-11.262-8.717-20.489-19.773-21.299l-0.070-0.004z" />
<glyph unicode="&#xe903;" glyph-name="money" d="M1007.957 874.667h-987.605c-11.24 0-20.352-9.112-20.352-20.352v0-585.173c0-11.24 9.112-20.352 20.352-20.352v0h987.605c11.24 0 20.352 9.112 20.352 20.352v0 585.173c0 11.24-9.112 20.352-20.352 20.352v0zM987.605 289.536h-946.859v544.384h946.816zM91.477 666.453v-207.104c0 0 0 0 0 0 0-11.249 9.107-20.37 20.35-20.395h0.002c43.998-0.049 79.653-35.703 79.701-79.697v-0.005c0-0.256 0-0.555 0-0.811v-1.067c-0.003-0.14-0.005-0.304-0.005-0.469 0-11.251 9.11-20.373 20.355-20.395h604.589c11.248 0.021 20.357 9.144 20.357 20.395 0 0.165-0.002 0.33-0.006 0.494v-0.024 1.067c0 0.256 0 0.555 0 0.811 0.049 43.998 35.703 79.653 79.697 79.701h0.005c11.245 0.024 20.352 9.146 20.352 20.395 0 0 0 0 0 0v0 207.104c0 0 0 0 0 0 0 11.249-9.107 20.37-20.35 20.395h-0.002c-43.998 0.049-79.653 35.703-79.701 79.697v0.005c0 0 0 0 0 0 0 11.24-9.112 20.352-20.352 20.352-0.015 0-0.030 0-0.045 0h-384.553c-11.252 0-20.373-9.121-20.373-20.373s9.121-20.373 20.373-20.373h365.909c8.954-50.299 48.047-89.392 97.616-98.239l0.731-0.108v-169.813c-51.095-9.096-90.645-49.309-98.642-100.010l-0.089-0.684h-566.528c-8.086 51.384-47.636 91.597-98 100.585l-0.731 0.108v169.813c50.299 8.954 89.392 48.047 98.239 97.616l0.108 0.731h36.352c11.252 0 20.373 9.121 20.373 20.373s-9.121 20.373-20.373 20.373h-54.955c-0.013 0-0.028 0-0.043 0-11.24 0-20.352-9.112-20.352-20.352 0 0 0 0 0 0v0c-0.049-43.998-35.703-79.653-79.697-79.701h-0.005c-11.227-0.048-20.309-9.161-20.309-20.394 0 0 0 0 0 0v0zM638.635 561.707c0 68.737-55.722 124.459-124.459 124.459s-124.459-55.722-124.459-124.459c0-68.737 55.722-124.459 124.459-124.459v0c68.707 0.073 124.386 55.751 124.459 124.452v0.007zM430.464 561.707c0 46.233 37.479 83.712 83.712 83.712s83.712-37.479 83.712-83.712c0-46.233-37.479-83.712-83.712-83.712v0c-46.177 0.097-83.578 37.529-83.627 83.707v0.005zM93.739 764.203c0.001 0 0.003 0 0.004 0 4.035 0 7.795 1.177 10.956 3.206l-0.081-0.049 1.109 0.725c5.716 3.672 9.448 9.998 9.448 17.195 0 11.25-9.12 20.371-20.371 20.371-4.053 0-7.83-1.184-11.003-3.225l0.081 0.049-1.109-0.683c-5.704-3.68-9.427-10.002-9.427-17.195 0-11.248 9.106-20.369 20.347-20.395h0.002zM935.979 764.203c0.014 0 0.030 0 0.047 0 4.035 0 7.796 1.177 10.957 3.206l-0.081-0.049 1.109 0.725c5.252 3.74 8.636 9.806 8.636 16.664 0 11.264-9.131 20.395-20.395 20.395-3.71 0-7.188-0.99-10.185-2.721l0.098 0.052-1.109-0.683c-5.704-3.68-9.427-10.002-9.427-17.195 0-11.248 9.106-20.369 20.347-20.395h0.002zM349.44 745.472c0.009 0 0.019 0 0.029 0 4.027 0 7.779 1.177 10.931 3.206l-0.080-0.048 1.109 0.683c5.716 3.672 9.448 9.998 9.448 17.195 0 11.25-9.12 20.371-20.371 20.371-4.053 0-7.83-1.184-11.003-3.225l0.081 0.049-1.109-0.683c-5.763-3.66-9.532-10.008-9.532-17.238 0-11.24 9.112-20.352 20.352-20.352 0.036 0 0.072 0 0.108 0h-0.006zM926.208 351.317l-1.109-0.683c-5.732-3.671-9.476-10.006-9.476-17.216 0-11.254 9.123-20.377 20.377-20.377 4.044 0 7.813 1.178 10.983 3.21l-0.081-0.049 1.109 0.725c5.721 3.669 9.458 9.995 9.458 17.195 0 11.244-9.115 20.359-20.359 20.359-4.045 0-7.814-1.179-10.982-3.213l0.081 0.049zM829.141 166.699c0.005 0 0.011 0 0.017 0 4.031 0 7.787 1.177 10.944 3.206l-0.080-0.048 1.109 0.725c5.721 3.669 9.458 9.995 9.458 17.195 0 11.244-9.115 20.359-20.359 20.359-4.045 0-7.814-1.179-10.982-3.213l0.081 0.049-1.109-0.683c-5.704-3.68-9.427-10.002-9.427-17.195 0-11.248 9.106-20.369 20.347-20.395h0.002zM93.739 312.619c0.014 0 0.030 0 0.047 0 4.035 0 7.796 1.177 10.957 3.206l-0.081-0.049 1.109 0.725c5.252 3.74 8.636 9.806 8.636 16.664 0 11.264-9.131 20.395-20.395 20.395-3.71 0-7.188-0.99-10.185-2.721l0.098 0.052-1.109-0.725c-5.725-3.666-9.464-9.994-9.464-17.195 0-11.24 9.112-20.352 20.352-20.352 0.027 0 0.055 0 0.082 0h-0.004zM1007.957 207.445h-95.488c-11.252 0-20.373-9.121-20.373-20.373s9.121-20.373 20.373-20.373v0h95.488c11.252 0 20.373 9.121 20.373 20.373s-9.121 20.373-20.373 20.373v0zM20.352 166.699h727.296c11.252 0 20.373 9.121 20.373 20.373s-9.121 20.373-20.373 20.373v0h-727.296c-11.252 0-20.373-9.121-20.373-20.373s9.121-20.373 20.373-20.373v0zM1007.957 134.784h-987.605c-11.252 0-20.373-9.121-20.373-20.373s9.121-20.373 20.373-20.373v0h987.605c11.252 0 20.373 9.121 20.373 20.373s-9.121 20.373-20.373 20.373v0zM1007.957 62.208h-987.605c-10.855-0.512-19.462-9.438-19.462-20.373s8.607-19.861 19.416-20.372l0.046-0.002h987.605c10.855 0.512 19.462 9.438 19.462 20.373s-8.607 19.861-19.416 20.372l-0.046 0.002z" />
<glyph unicode="&#xe904;" glyph-name="credit-card" d="M961.65 827.259h-888.946c-40.136-0.043-72.661-32.568-72.704-72.7v-613.115c0.043-40.136 32.568-72.661 72.7-72.704h888.95c40.136 0.043 72.661 32.568 72.704 72.7v613.115c-0.043 40.136-32.568 72.661-72.7 72.704h-0.004zM999.879 141.445c-0.022-21.105-17.125-38.208-38.227-38.229h-888.948c-21.105 0.022-38.208 17.125-38.229 38.227v613.113c0.022 21.105 17.125 38.208 38.227 38.229h888.948c21.105-0.022 38.208-17.125 38.229-38.227v-0.002zM275.797 327.32h-155.117c-9.176-0.444-16.448-7.991-16.448-17.237s7.272-16.793 16.408-17.236l0.040-0.002h155.155c9.176 0.444 16.448 7.991 16.448 17.237s-7.272 16.793-16.408 17.236l-0.040 0.002zM499.902 327.32h-155.117c-9.176-0.444-16.448-7.991-16.448-17.237s7.272-16.793 16.408-17.236l0.040-0.002h155.155c9.176 0.444 16.448 7.991 16.448 17.237s-7.272 16.793-16.408 17.236l-0.040 0.002zM137.899 241.114h-17.218c-0.241 0.012-0.524 0.019-0.809 0.019-9.53 0-17.256-7.726-17.256-17.256s7.726-17.256 17.256-17.256c0.284 0 0.567 0.007 0.848 0.020l-0.040-0.002h17.256c0.241-0.012 0.524-0.019 0.809-0.019 9.53 0 17.256 7.726 17.256 17.256s-7.726 17.256-17.256 17.256c-0.284 0-0.567-0.007-0.848-0.020l0.040 0.002zM241.361 241.114h-34.475c-0.241 0.012-0.524 0.019-0.809 0.019-9.53 0-17.256-7.726-17.256-17.256s7.726-17.256 17.256-17.256c0.284 0 0.567 0.007 0.848 0.020l-0.040-0.002h34.475c0.241-0.012 0.524-0.019 0.809-0.019 9.53 0 17.256 7.726 17.256 17.256s-7.726 17.256-17.256 17.256c-0.284 0-0.567-0.007-0.848-0.020l0.040 0.002zM327.528 241.114h-17.256c-9.176-0.444-16.448-7.991-16.448-17.237s7.272-16.793 16.408-17.236l0.040-0.002h17.256c9.176 0.444 16.448 7.991 16.448 17.237s-7.272 16.793-16.408 17.236l-0.040 0.002zM430.99 241.114h-34.475c-0.241 0.012-0.524 0.019-0.809 0.019-9.53 0-17.256-7.726-17.256-17.256s7.726-17.256 17.256-17.256c0.284 0 0.567 0.007 0.848 0.020l-0.040-0.002h34.475c0.241-0.012 0.524-0.019 0.809-0.019 9.53 0 17.256 7.726 17.256 17.256s-7.726 17.256-17.256 17.256c-0.284 0-0.567-0.007-0.848-0.020l0.040 0.002zM487.689 236.108c-3.105-3.12-5.025-7.422-5.025-12.173 0-9.53 7.726-17.256 17.256-17.256s17.256 7.726 17.256 17.256c0 4.751-1.92 9.053-5.026 12.174l0.001-0.001c-3.205 2.96-7.506 4.775-12.231 4.775s-9.026-1.815-12.243-4.786l0.012 0.011zM827.506 396.269c-22.234-0.003-43.052-6.060-60.897-16.613l0.557 0.305c-17.398 10.299-38.345 16.384-60.713 16.384-66.65 0-120.68-54.030-120.68-120.68s54.030-120.68 120.68-120.68c22.368 0 43.315 6.085 61.275 16.691l-0.562-0.307c17.36-10.251 38.253-16.308 60.561-16.308 66.608 0 120.604 53.996 120.604 120.604s-53.996 120.604-120.604 120.604c-0.078 0-0.156 0-0.233 0h0.012zM793.031 275.589c-0.006-24.057-9.905-45.801-25.849-61.386l-0.016-0.016c-15.962 15.599-25.86 37.345-25.86 61.402s9.898 45.803 25.844 61.386l0.016 0.016c15.961-15.601 25.859-37.345 25.865-61.401v-0.001zM620.658 275.589c0.043 47.593 38.613 86.162 86.201 86.206h0.004c11.103-0.069 21.677-2.249 31.368-6.158l-0.573 0.204c-19.114-21.16-30.81-49.34-30.81-80.251s11.696-59.091 30.903-80.356l-0.093 0.105c-9.119-3.706-19.693-5.886-30.768-5.954h-0.028c-47.609 0.022-86.2 38.6-86.244 86.202v0.004zM827.544 189.383c-11.103 0.069-21.677 2.249-31.368 6.158l0.573-0.204c19.114 21.16 30.81 49.34 30.81 80.251s-11.696 59.091-30.903 80.356l0.093-0.105c9.119 3.706 19.693 5.886 30.768 5.954h0.028c0.538 0.012 1.172 0.019 1.808 0.019 47.61 0 86.206-38.596 86.206-86.206s-38.596-86.206-86.206-86.206c-0.636 0-1.27 0.007-1.902 0.021l0.094-0.002zM142.298 448h232.562c21.461 0.022 38.853 17.413 38.874 38.872v163.614c-0.022 21.461-17.413 38.853-38.872 38.874h-232.564c-21.461-0.022-38.853-17.413-38.874-38.872v-163.614c0.022-21.461 17.413-38.853 38.872-38.874h0.002zM206.772 551.424h-68.873v34.475h68.949zM137.823 486.95v30.075h69.025v-30.075c0.072-1.619 0.235-3.134 0.486-4.618l-0.031 0.219h-65.005c0 0 0 0-0.001 0-2.403 0-4.356 1.927-4.399 4.32v0.004zM379.183 551.424h-68.873v30.075c0 2.43 1.97 4.399 4.399 4.399v0h60.151c1.619 0.072 3.134 0.235 4.618 0.486l-0.219-0.031v-34.93zM374.784 482.475h-64.929c0.22 1.266 0.383 2.78 0.452 4.319l0.003 0.080v30.075h68.949v-30.075c0-2.43-1.97-4.399-4.399-4.399v0zM374.784 654.848c2.43 0 4.399-1.97 4.399-4.399v0-25.562c0-2.43-1.97-4.399-4.399-4.399v0h-60.113c-21.461-0.022-38.853-17.413-38.874-38.872v-94.817c0-2.43-1.97-4.399-4.399-4.399v0h-25.676c-2.43 0-4.399 1.97-4.399 4.399v0 163.688c0 2.43 1.97 4.399 4.399 4.399v0zM142.222 654.848h65.081c-0.22-1.266-0.383-2.78-0.452-4.319l-0.003-0.080v-30.075h-68.949v30.075c0 0.011 0 0.025 0 0.038 0 2.43 1.97 4.399 4.399 4.399 0 0 0 0 0 0v0z" />
<glyph unicode="&#xe905;" glyph-name="rupee" d="M512 960c-282.77 0-512-229.23-512-512s229.23-512 512-512c282.77 0 512 229.23 512 512v0c-0.34 282.633-229.366 511.66-511.967 512h-0.033zM512 0c-247.424 0-448 200.576-448 448s200.576 448 448 448c247.424 0 448-200.576 448-448v0c-0.291-247.307-200.694-447.709-447.973-448h-0.027zM672 576h-35.243c-5.274 24.516-15.581 46.046-29.833 64.354l0.265-0.354h64.853c17.673 0 32 14.327 32 32s-14.327 32-32 32v0h-320c-17.673 0-32-14.327-32-32s14.327-32 32-32v0h128c41.406-0.124 76.622-26.488 89.902-63.332l0.21-0.668h-218.112c-17.673 0-32-14.327-32-32s14.327-32 32-32v0h218.112c-13.489-37.512-48.706-63.876-90.097-64h-128.015c-13.266-0.006-24.643-8.083-29.489-19.587l-0.079-0.21c-1.548-3.61-2.448-7.812-2.448-12.224s0.9-8.614 2.527-12.431l-0.079 0.207c1.655-4.081 4.011-7.561 6.95-10.449l256.004-256.004c5.83-6.046 14-9.8 23.047-9.8 17.673 0 32 14.327 32 32 0 9.016-3.728 17.16-9.727 22.977l-201.437 201.437h50.731c76.992 0.095 141.25 54.499 156.53 126.955l0.184 1.045h35.285c17.673 0 32 14.327 32 32s-14.327 32-32 32v0z" />
<glyph unicode="&#xe906;" glyph-name="close" d="M780.8 716.373c-7.712 7.668-18.343 12.407-30.080 12.407s-22.368-4.74-30.082-12.409l0.002 0.002-208.64-208.213-208.64 208.64c-7.412 6.377-17.129 10.259-27.753 10.259-23.564 0-42.667-19.103-42.667-42.667 0-10.624 3.883-20.341 10.307-27.809l-0.047 0.056 208.64-208.64-208.64-208.64c-6.377-7.412-10.259-17.129-10.259-27.753 0-23.564 19.103-42.667 42.667-42.667 10.624 0 20.341 3.883 27.809 10.307l-0.056-0.047 208.64 208.64 208.64-208.64c7.412-6.377 17.129-10.259 27.753-10.259 23.564 0 42.667 19.103 42.667 42.667 0 10.624-3.883 20.341-10.307 27.809l0.047-0.056-208.64 208.64 208.64 208.64c7.542 7.69 12.197 18.235 12.197 29.867s-4.655 22.177-12.203 29.874l0.007-0.007z" />
<glyph unicode="&#xe907;" glyph-name="selected" d="M824.704 766.464l-421.504-421.504-165.504 165.504c-22.995 22.231-54.359 35.931-88.923 35.931-70.692 0-128-57.308-128-128 0-34.564 13.7-65.928 35.966-88.959l-0.035 0.036 256-256c23.162-23.155 55.157-37.477 90.496-37.477s67.334 14.321 90.496 37.477l512 512c22.231 22.995 35.931 54.359 35.931 88.923 0 70.692-57.308 128-128 128-34.564 0-65.928-13.7-88.959-35.966l0.036 0.035z" />
<glyph unicode="&#xe908;" glyph-name="receipt" d="M896 866.133c-0.073 0.001-0.159 0.001-0.244 0.001-5.795 0-11.017-2.458-14.678-6.389l-0.011-0.012-34.133-33.707c-3.847-3.94-9.212-6.383-15.147-6.383s-11.3 2.443-15.143 6.379l-0.004 0.004-34.133 33.707c-3.847 3.94-9.212 6.383-15.147 6.383s-11.3-2.443-15.143-6.379l-0.004-0.004-34.133-33.707c-3.847-3.94-9.212-6.383-15.147-6.383s-11.3 2.443-15.143 6.379l-0.004 0.004-34.133 33.707c-3.847 3.94-9.212 6.383-15.147 6.383s-11.3-2.443-15.143-6.379l-0.004-0.004-34.133-33.707c-3.847-3.94-9.212-6.383-15.147-6.383s-11.3 2.443-15.143 6.379l-0.004 0.004-34.133 33.707c-3.847 3.94-9.212 6.383-15.147 6.383s-11.3-2.443-15.143-6.379l-0.004-0.004-34.133-33.707c-3.847-3.94-9.212-6.383-15.147-6.383s-11.3 2.443-15.143 6.379l-34.137 34.137c-3.847 3.94-9.212 6.383-15.147 6.383s-11.3-2.443-15.143-6.379l-34.137-34.137c-3.847-3.94-9.212-6.383-15.147-6.383s-11.3 2.443-15.143 6.379l-34.137 34.137c-3.847 3.94-9.212 6.383-15.147 6.383s-11.3-2.443-15.143-6.379l-34.137-34.137c-3.847-3.94-9.212-6.383-15.147-6.383s-11.3 2.443-15.143 6.379l-0.004 0.004-33.707 34.133c-2.818 2.906-6.448 5.009-10.523 5.946l-0.143 0.028v-836.267c0.073-0.001 0.159-0.001 0.244-0.001 5.795 0 11.017 2.458 14.678 6.389l0.011 0.012 33.707 34.133c3.847 3.94 9.212 6.383 15.147 6.383s11.3-2.443 15.143-6.379l34.137-34.137c3.847-3.94 9.212-6.383 15.147-6.383s11.3 2.443 15.143 6.379l34.137 34.137c3.847 3.94 9.212 6.383 15.147 6.383s11.3-2.443 15.143-6.379l34.137-34.137c3.847-3.94 9.212-6.383 15.147-6.383s11.3 2.443 15.143 6.379l34.137 34.137c3.847 3.94 9.212 6.383 15.147 6.383s11.3-2.443 15.143-6.379l34.137-34.137c3.847-3.94 9.212-6.383 15.147-6.383s11.3 2.443 15.143 6.379l34.137 34.137c3.847 3.94 9.212 6.383 15.147 6.383s11.3-2.443 15.143-6.379l34.137-34.137c3.847-3.94 9.212-6.383 15.147-6.383s11.3 2.443 15.143 6.379l34.137 34.137c3.847 3.94 9.212 6.383 15.147 6.383s11.3-2.443 15.143-6.379l34.137-34.137c3.847-3.94 9.212-6.383 15.147-6.383s11.3 2.443 15.143 6.379l34.137 34.137c3.847 3.94 9.212 6.383 15.147 6.383s11.3-2.443 15.143-6.379l34.137-34.137c3.811-3.874 9.079-6.304 14.915-6.4h0.018v836.267zM725.333 234.667h-426.667c-23.564 0-42.667 19.103-42.667 42.667s19.103 42.667 42.667 42.667v0h426.667c23.564 0 42.667-19.103 42.667-42.667s-19.103-42.667-42.667-42.667v0zM725.333 405.333h-426.667c-23.564 0-42.667 19.103-42.667 42.667s19.103 42.667 42.667 42.667v0h426.667c23.564 0 42.667-19.103 42.667-42.667s-19.103-42.667-42.667-42.667v0zM725.333 576h-426.667c-23.564 0-42.667 19.103-42.667 42.667s19.103 42.667 42.667 42.667v0h426.667c23.564 0 42.667-19.103 42.667-42.667s-19.103-42.667-42.667-42.667v0z" />
<glyph unicode="&#xe909;" glyph-name="back-arrow" d="M810.688 490.816h-476.544l208.192 208.064c7.719 7.772 12.49 18.481 12.49 30.304s-4.771 22.532-12.492 30.306l0.002-0.002c-7.693 7.709-18.33 12.478-30.080 12.478s-22.387-4.769-30.079-12.477l-0.001-0.001-281.152-281.472c-7.709-7.693-12.478-18.33-12.478-30.080s4.769-22.387 12.477-30.079l281.153-281.153c7.596-7.152 17.858-11.547 29.147-11.547 23.505 0 42.56 19.055 42.56 42.56 0 11.289-4.395 21.551-11.567 29.169l0.020-0.022-208.192 208.448h476.608c0.493-0.020 1.071-0.032 1.653-0.032 23.576 0 42.688 19.112 42.688 42.688s-19.112 42.688-42.688 42.688c-0.581 0-1.16-0.012-1.735-0.035l0.083 0.003z" />
<glyph unicode="&#xe90a;" glyph-name="plus" d="M828.974 447.696v0c0.019 9.088-3.438 18.181-10.37 25.114s-16.025 10.39-25.112 10.37h-0.002l-245.469 0.753-0.471 245.751c0.019 9.088-3.438 18.181-10.37 25.114s-16.025 10.39-25.112 10.37h-0.002c-9.088 0.019-18.181-3.438-25.114-10.37s-10.39-16.025-10.37-25.112v-246.224h-246.222c-9.088 0.019-18.181-3.438-25.114-10.37s-10.39-16.025-10.37-25.112v-0.002c-0.019-9.088 3.438-18.181 10.37-25.114s16.025-10.39 25.112-10.37h246.224v-246.222c-0.019-9.088 3.438-18.181 10.37-25.114s16.025-10.39 25.112-10.37h0.002c9.088-0.019 18.181 3.438 25.114 10.37s10.39 16.025 10.37 25.112v246.224h246.222c8.966 0.114 17.907 3.596 24.756 10.445s10.331 15.79 10.445 24.767v-0.010z" />
<glyph unicode="&#xe90b;" glyph-name="delete" d="M262.223-51.43c-68.963 0-124.868 55.905-124.868 124.868v0 561.906h-62.434c-34.481 0-62.434 27.953-62.434 62.434s27.953 62.434 62.434 62.434v0h249.736c0 103.444 83.858 187.302 187.302 187.302s187.302-83.858 187.302-187.302v0h249.736c34.481 0 62.434-27.953 62.434-62.434s-27.953-62.434-62.434-62.434v0h-62.434v-561.906c0-68.963-55.905-124.868-124.868-124.868v0zM262.223 73.438h499.472v561.906h-499.472zM449.524 760.211h124.868c0 34.481-27.953 62.434-62.434 62.434s-62.434-27.953-62.434-62.434v0zM449.524 385.608c-34.481 0-62.434 27.953-62.434 62.434s27.953 62.434 62.434 62.434v0h124.868c34.481 0 62.434-27.953 62.434-62.434s-27.953-62.434-62.434-62.434v0z" />
<glyph unicode="&#xe90c;" glyph-name="star" d="M838.522 574.281l-206.537 17.947-80.762 189.82c-6.691 15.365-21.744 25.912-39.259 25.912s-32.568-10.547-39.152-25.637l-0.107-0.275-80.617-190.254-206.103-17.513c-21.981-1.827-39.13-20.118-39.13-42.414 0-12.878 5.721-24.42 14.76-32.223l0.055-0.046 156.603-135.761-46.967-201.399c-0.719-2.928-1.131-6.289-1.131-9.746 0-23.501 19.051-42.552 42.552-42.552 8.178 0 15.816 2.307 22.301 6.305l-0.184-0.105 177.083 106.67 177.083-107.104c6.301-3.893 13.94-6.2 22.118-6.2 23.501 0 42.552 19.051 42.552 42.552 0 3.457-0.412 6.818-1.19 10.036l0.059-0.291-46.822 201.833 156.603 135.689c9.227 7.842 15.043 19.457 15.043 32.431 0 22.184-17.005 40.396-38.691 42.313l-0.162 0.012zM512.145 302.903l-160.583-96.828 42.697 182.583-141.913 122.88 186.853 16.21 72.367 171.945 73.67-172.307 186.853-16.21-141.623-123.025 42.697-182.583z" />
<glyph unicode="&#xe90d;" glyph-name="star-active" d="M838.522 574.281l-206.537 17.947-80.762 189.82c-6.691 15.365-21.744 25.912-39.259 25.912s-32.568-10.547-39.152-25.637l-0.107-0.275-80.617-190.254-206.103-17.513c-21.981-1.827-39.13-20.118-39.13-42.414 0-12.878 5.721-24.42 14.76-32.223l0.055-0.046 156.603-135.761-46.967-201.399c-0.719-2.928-1.131-6.289-1.131-9.746 0-23.501 19.051-42.552 42.552-42.552 8.178 0 15.816 2.307 22.301 6.305l-0.184-0.105 177.083 106.67 177.083-107.104c6.301-3.893 13.94-6.2 22.118-6.2 23.501 0 42.552 19.051 42.552 42.552 0 3.457-0.412 6.818-1.19 10.036l0.059-0.291-46.822 201.833 156.603 135.689c9.227 7.842 15.043 19.457 15.043 32.431 0 22.184-17.005 40.396-38.691 42.313l-0.162 0.012z" />
<glyph unicode="&#xe90e;" glyph-name="up-down" d="M411.648 306.133l77.995-77.995c5.425-5.534 12.979-8.964 21.333-8.964s15.908 3.43 21.329 8.959l78 78c5.425 5.46 8.778 12.984 8.778 21.291 0 16.65-13.47 30.153-30.107 30.208h-156.25c-16.573-0.083-29.977-13.537-29.977-30.122 0-8.356 3.403-15.918 8.898-21.375l0.002-0.002zM609.835 589.867l-78.037 77.995c-5.425 5.534-12.979 8.964-21.333 8.964s-15.908-3.43-21.329-8.959l-0.005-0.005-77.781-77.995c-5.425-5.46-8.778-12.984-8.778-21.291 0-16.665 13.494-30.177 30.151-30.208h156.163c16.518 0.155 29.85 13.581 29.85 30.121 0 8.357-3.403 15.919-8.899 21.376l-0.002 0.002z" />
<glyph unicode="&#xe90f;" glyph-name="search" d="M661.333 362.667h-33.678l-11.947 11.378c41.628 48.283 66.981 111.623 66.981 180.884 0 153.387-124.345 277.732-277.732 277.732s-277.732-124.345-277.732-277.732c0-153.387 124.345-277.732 277.732-277.732 69.261 0 132.6 25.353 181.244 67.284l-0.36-0.303 11.378-11.947v-33.678l213.447-212.821 63.602 63.602zM405.333 362.667c-106.039 0-192 85.961-192 192s85.961 192 192 192c106.039 0 192-85.961 192-192v0c0-0.084 0-0.185 0-0.285 0-105.882-85.834-191.716-191.716-191.716-0.1 0-0.2 0-0.3 0h0.015z" />
<glyph unicode="&#xe910;" glyph-name="date-range" d="M384 490.667h-85.333v-85.333h85.333zM554.667 490.667h-85.333v-85.333h85.333zM725.333 490.667h-85.333v-85.333h85.333zM810.667 789.333h-42.667v85.333h-85.333v-85.333h-341.333v85.333h-85.333v-85.333h-42.667c0 0-0.001 0-0.001 0-46.908 0-84.935-38.027-84.935-84.935 0-0.14 0-0.28 0.001-0.42v0.022l-0.398-597.333c0-47.128 38.205-85.333 85.333-85.333v0h597.333c47.128 0 85.333 38.205 85.333 85.333v0 597.333c0 47.128-38.205 85.333-85.333 85.333v0zM810.667 106.667h-597.333v469.333h597.333z" />
<glyph unicode="&#xe911;" d="M674.509 172.493c-46.779-28.275-103.284-45.006-163.697-45.006-176.844 0-320.205 143.361-320.205 320.205s143.361 320.205 320.205 320.205c176.844 0 320.205-143.361 320.205-320.205 0-96.42-42.617-182.886-110.042-241.59l-0.386-0.329z" />
<glyph unicode="&#xe912;" d="M703.334 704.205c-52.51 39.67-118.888 63.54-190.84 63.54-0.174 0-0.348 0-0.522 0h0.027c-19.943-0.054-39.415-1.915-58.306-5.427l1.986 0.307c-70.387-64.411-114.363-156.683-114.363-259.227 0-176.312 130.006-322.26 299.385-347.211l1.909-0.231 2.816 1.28 2.56 1.178 6.605 3.226 1.946 0.973 8.243 4.352 1.741 0.973 6.502 3.686 1.229 0.717c17.418 10.396 32.48 21.334 46.481 33.466l-0.401-0.34 6.144 5.427 5.888 5.478 1.69 1.69 4.045 3.994 2.099 2.15 3.533 3.635 2.202 2.355 3.277 3.584 2.202 2.509 3.123 3.584 2.202 2.611 2.97 3.635 2.15 2.662 2.918 3.738 2.048 2.662 4.813 6.502 3.021 4.352 1.587 2.304 3.84 5.837 0.614 0.922q2.202 3.43 4.301 6.861l1.28 2.15 2.867 4.864 1.536 2.765 2.406 4.352 1.587 3.021 2.202 4.198 1.587 3.123 2.048 4.198 1.485 3.226 1.894 4.198 1.434 3.277 1.792 4.301 1.331 3.277 1.741 4.454 1.229 3.174c0.563 1.587 1.126 3.174 1.741 4.813l1.024 2.97c0.614 1.843 1.229 3.738 1.843 5.632l0.717 2.202q1.229 3.942 2.355 7.936l0.512 1.843c0.563 2.048 1.126 4.096 1.638 6.195l0.717 2.97c0.41 1.69 0.819 3.43 1.229 5.12s0.512 2.202 0.717 3.328 0.717 3.226 1.024 4.864l0.666 3.533q0.461 2.355 0.87 4.762c0 1.178 0.41 2.406 0.614 3.584s0.512 3.174 0.717 4.762 0.358 2.406 0.512 3.635 0.41 3.226 0.614 4.813 0.307 2.406 0.41 3.635 0.307 3.277 0.461 5.12 0 2.355 0.307 3.533 0 3.43 0.358 5.12 0 2.253 0 3.379c0 1.894 0 3.84 0 5.786 0 0.973 0 1.894 0 2.867q0 4.301 0 8.653c0 0.054 0 0.117 0 0.181 0 104.364-50.113 197.023-127.588 255.228l-0.821 0.591z" />
<glyph unicode="&#xe913;" d="M712.243 583.014c25.916-37.928 41.384-84.785 41.384-135.254 0-133.496-108.22-241.715-241.715-241.715s-241.715 108.22-241.715 241.715c0 133.496 108.22 241.715 241.715 241.715 62.827 0 120.055-23.969 163.039-63.263l-0.186 0.167z" />
<glyph unicode="&#xe914;" d="M753.254 458.394q-0.358 8.243-1.229 16.384v1.997q-0.973 8.090-2.458 16.026l-0.358 1.946q-1.536 7.885-3.584 15.616l-0.512 1.843q-2.099 7.731-4.71 15.36l-0.614 1.792q-2.662 7.475-5.786 14.694l-0.717 1.69q-3.174 7.219-6.81 14.182l-0.87 1.638q-3.686 6.912-7.782 13.568l-0.973 1.587c-12.054 18.974-25.83 35.354-41.495 49.705l-0.182 0.164-1.997 1.741-2.202 1.946-2.099 1.792-2.202 1.843-2.15 1.741-2.202 1.792-2.202 1.741-2.253 1.741-2.253 1.69-2.253 1.638-2.304 1.638-2.304 1.587-4.71 3.174-2.355 1.536-2.406 1.536-2.406 1.434-2.458 1.485-2.406 1.382-2.56 1.434-2.406 1.331-2.611 1.382-5.12 2.611-2.355 1.178-5.171 2.406-3.738 1.638-1.485 0.666-5.12 2.15-2.048 0.768-3.328 1.28-2.304 0.819-3.123 1.075-2.458 0.819-3.021 0.973-5.53 1.69-2.56 0.717-3.021 0.819-2.611 0.666-5.632 1.331-3.072 0.666-2.662 0.563-3.072 0.614-2.662 0.461-3.123 0.512-2.662 0.41-3.226 0.461-2.662 0.358-3.277 0.358-2.611 0.307-3.379 0.307h-41.165l-3.379-0.307-2.611-0.307-3.277-0.358-2.662-0.358-3.226-0.461-2.662-0.41-3.123-0.512-2.662-0.461-3.072-0.614-2.662-0.563-3.072-0.666-2.662-0.614-3.021-0.717-2.611-0.666-3.021-0.819-2.56-0.717-5.53-1.69-3.021-0.973-2.458-0.819-3.123-1.075-2.304-0.819-3.328-1.28-2.048-0.768-5.12-2.15-1.485-0.666-3.738-1.638-5.171-2.406-2.355-1.178-2.714-1.331-2.406-1.28-2.611-1.382-2.406-1.331-2.56-1.434-2.406-1.382-2.458-1.485-2.406-1.434-2.406-1.536-2.355-1.536-4.71-3.174-2.304-1.587-2.304-1.638-0.512-0.358c-18.431-41.278-29.164-89.45-29.164-140.13 0-124.518 64.795-233.901 162.507-296.273l1.415-0.845h6.502c0.091 0 0.198 0 0.305 0 120.365 0 220.137 88.164 238.264 203.437l0.177 1.364q0.922 5.99 1.536 12.083c0.783 7.334 1.229 15.843 1.229 24.456 0 0.078 0 0.156 0 0.234v-0.012c0 2.765 0 5.53 0 8.294-1.178 0.512-1.178 1.178-1.229 1.894z" />
<glyph unicode="&#xe915;" d="M665.856 187.341c-44.095-26.491-97.307-42.159-154.179-42.159-167.343 0-303.002 135.658-303.002 303.002s135.658 303.002 303.002 303.002c167.343 0 303.002-135.658 303.002-303.002 0-91.472-40.533-173.477-104.618-229.034l-0.378-0.32c-3.665-3.173-5.969-7.833-5.969-13.030 0-9.503 7.704-17.207 17.207-17.207 4.306 0 8.242 1.581 11.26 4.195l-0.022-0.018c71.389 61.953 116.271 152.827 116.271 254.183 0 185.554-150.421 335.974-335.974 335.974s-335.974-150.421-335.974-335.974c0-185.554 150.421-335.974 335.974-335.974 63.041 0 122.027 17.363 172.437 47.567l-1.527-0.848c5.099 3.051 8.46 8.544 8.46 14.822 0 9.508-7.707 17.215-17.215 17.215-3.229 0-6.251-0.889-8.833-2.436l0.078 0.043z" />
<glyph unicode="&#xe916;" d="M512.154 672.307c0.062 0 0.135 0 0.208 0 58.27 0 111.338-22.275 151.152-58.774l-0.166 0.15c3.053-2.774 7.126-4.472 11.597-4.472 9.539 0 17.272 7.733 17.272 17.272 0 5.069-2.183 9.628-5.661 12.787l-0.014 0.013c-45.746 41.796-106.903 67.4-174.041 67.4-142.714 0-258.406-115.692-258.406-258.406s115.692-258.406 258.406-258.406c142.714 0 258.406 115.692 258.406 258.406 0 53.943-16.529 104.026-44.799 145.46l0.574-0.892c-3.136 4.599-8.349 7.578-14.259 7.578-9.501 0-17.204-7.702-17.204-17.204 0-3.592 1.101-6.926 2.983-9.685l-0.038 0.059c23.998-35.17 38.32-78.607 38.32-125.389 0-123.881-100.426-224.307-224.307-224.307s-224.307 100.426-224.307 224.307c0 123.874 100.413 224.295 224.284 224.307h0.001z" />
<glyph unicode="&#xe917;" d="M512 826.266c9.501 0 17.203 7.702 17.203 17.203v0 99.328c0 9.501-7.702 17.203-17.203 17.203s-17.203-7.702-17.203-17.203v0-99.277c0-0.015 0-0.033 0-0.051 0-9.501 7.702-17.203 17.203-17.203 0 0 0 0 0 0v0z" />
<glyph unicode="&#xe918;" d="M512 69.734c-9.501 0-17.203-7.702-17.203-17.203v0-99.277c0-9.501 7.702-17.203 17.203-17.203s17.203 7.702 17.203 17.203v0 99.277c0 9.501-7.702 17.203-17.203 17.203v0z" />
<glyph unicode="&#xe919;" d="M299.366 781.875c3.030-5.179 8.565-8.602 14.899-8.602 9.501 0 17.204 7.702 17.204 17.204 0 3.167-0.856 6.134-2.349 8.683l0.044-0.081-49.664 86.016c-3.030 5.179-8.565 8.602-14.899 8.602-9.501 0-17.204-7.702-17.204-17.204 0-3.167 0.856-6.134 2.349-8.683l-0.044 0.081z" />
<glyph unicode="&#xe91a;" d="M724.685 114.125c-3.030 5.179-8.565 8.602-14.899 8.602-9.501 0-17.204-7.702-17.204-17.204 0-3.167 0.856-6.134 2.349-8.683l-0.044 0.081 49.664-86.016c3.030-5.179 8.565-8.602 14.899-8.602 9.501 0 17.204 7.702 17.204 17.204 0 3.167-0.856 6.134-2.349 8.683l0.044-0.081z" />
<glyph unicode="&#xe91b;" d="M74.906 680.499l85.965-49.664c2.467-1.449 5.435-2.305 8.602-2.305 9.501 0 17.204 7.702 17.204 17.204 0 6.334-3.423 11.869-8.521 14.855l-0.081 0.044-85.965 49.664c-2.467 1.449-5.435 2.305-8.602 2.305-9.501 0-17.204-7.702-17.204-17.204 0-6.334 3.423-11.869 8.521-14.855l0.081-0.044z" />
<glyph unicode="&#xe91c;" d="M949.094 215.501l-86.016 49.664c-2.467 1.449-5.435 2.305-8.602 2.305-9.501 0-17.204-7.702-17.204-17.204 0-6.334 3.423-11.869 8.521-14.855l0.081-0.044 86.016-49.664c2.467-1.449 5.435-2.305 8.602-2.305 9.501 0 17.204 7.702 17.204 17.204 0 6.334-3.423 11.869-8.521 14.855l-0.081 0.044z" />
<glyph unicode="&#xe91d;" d="M133.734 448c0 9.501-7.702 17.203-17.203 17.203h-99.328c-9.501 0-17.203-7.702-17.203-17.203s7.702-17.203 17.203-17.203h99.277c0.015 0 0.033 0 0.051 0 9.501 0 17.203 7.702 17.203 17.203 0 0 0 0 0 0v0z" />
<glyph unicode="&#xe91e;" d="M1006.746 464.947h-99.277c-9.501 0-17.203-7.702-17.203-17.203s7.702-17.203 17.203-17.203h99.277c9.501 0 17.203 7.702 17.203 17.203s-7.702 17.203-17.203 17.203v0z" />
<glyph unicode="&#xe91f;" d="M160.87 265.165l-86.016-49.664c-5.179-3.030-8.602-8.565-8.602-14.899 0-9.501 7.702-17.204 17.204-17.204 3.167 0 6.134 0.856 8.683 2.349l-0.081-0.044 86.016 49.664c5.179 3.030 8.602 8.565 8.602 14.899 0 9.501-7.702 17.204-17.204 17.204-3.167 0-6.134-0.856-8.683-2.349l0.081 0.044z" />
<glyph unicode="&#xe920;" d="M854.528 628.531c0.004 0 0.010 0 0.015 0 3.162 0 6.124 0.856 8.667 2.348l-0.081-0.044 86.016 49.664c5.179 3.030 8.602 8.565 8.602 14.899 0 9.501-7.702 17.204-17.204 17.204-3.167 0-6.134-0.856-8.683-2.349l0.081 0.044-86.016-49.664c-5.179-3.030-8.603-8.565-8.603-14.899 0-9.501 7.702-17.203 17.203-17.203 0 0 0.001 0 0.001 0v0z" />
<glyph unicode="&#xe921;" d="M322.867 120.371c-2.467 1.449-5.435 2.305-8.602 2.305-6.334 0-11.869-3.424-14.855-8.521l-0.044-0.081-49.664-86.016c-1.449-2.467-2.305-5.435-2.305-8.602 0-9.501 7.702-17.204 17.204-17.204 6.334 0 11.869 3.423 14.855 8.521l0.044 0.081 49.664 86.016c1.449 2.467 2.305 5.435 2.305 8.602 0 6.334-3.424 11.869-8.521 14.855l-0.081 0.044z" />
<glyph unicode="&#xe922;" d="M701.133 775.629c2.467-1.449 5.435-2.305 8.602-2.305 6.334 0 11.869 3.424 14.855 8.521l0.044 0.081 49.664 86.016c1.449 2.467 2.305 5.435 2.305 8.602 0 9.501-7.702 17.204-17.204 17.204-6.334 0-11.869-3.423-14.855-8.521l-0.044-0.081-49.664-86.016c-1.449-2.467-2.305-5.435-2.305-8.602 0-6.334 3.424-11.869 8.521-14.855l0.081-0.044z" />
<glyph unicode="&#xe923;" horiz-adv-x="1091" d="M859.085 280.627c17.251 39.411 27.29 85.339 27.29 133.613 0 188.183-152.553 340.736-340.736 340.736s-340.736-152.553-340.736-340.736c0-48.273 10.039-94.202 28.142-135.813l-0.853 2.2z" />
<glyph unicode="&#xe924;" horiz-adv-x="1091" d="M880.794 299.725c12.066 33.641 19.040 72.454 19.040 112.896 0 190.032-153.991 344.097-343.995 344.218h-0.012c-11.059 0-21.965-0.563-32.717-1.536-82.67-64.161-135.363-163.543-135.363-275.232 0-66.71 18.798-129.030 51.386-181.951l-0.861 1.503z" />
<glyph unicode="&#xe925;" horiz-adv-x="1091" d="M765.184 280.627c23.597 38.121 37.581 84.348 37.581 133.842 0 142.007-115.119 257.126-257.126 257.126s-257.126-115.119-257.126-257.126c0-49.494 13.984-95.722 38.217-134.948l-0.636 1.106z" />
<glyph unicode="&#xe926;" horiz-adv-x="1091" d="M779.52 299.725c16.418 32.41 26.034 70.66 26.034 111.156 0 37.862-8.406 73.761-23.454 105.932l0.645-1.536-37.99 58.931c-46.073 53.101-113.661 86.486-189.045 86.486-52.062 0-100.404-15.923-140.424-43.164l0.867 0.557c-17.984-40.631-28.454-88.019-28.454-137.852 0-66.7 18.756-129.019 51.283-181.971l-0.864 1.513z" />
<glyph unicode="&#xe927;" horiz-adv-x="1091" d="M545.638 817.408c-10.151 0-18.381 8.229-18.381 18.381v0 105.83c0 10.166 8.241 18.406 18.406 18.406s18.406-8.241 18.406-18.406v0-105.779c0-10.18-8.252-18.432-18.432-18.432v0z" />
<glyph unicode="&#xe928;" horiz-adv-x="1091" d="M334.95 760.934c-0.012 0-0.027 0-0.041 0-6.778 0-12.699 3.669-15.886 9.129l-0.047 0.087-52.89 91.648c-1.546 2.637-2.458 5.807-2.458 9.19 0 10.166 8.241 18.407 18.407 18.407 6.783 0 12.709-3.669 15.902-9.13l0.047-0.087 52.89-91.648c1.557-2.642 2.477-5.822 2.477-9.216 0-10.151-8.229-18.381-18.381-18.381-0.007 0-0.014 0-0.021 0h0.001z" />
<glyph unicode="&#xe929;" horiz-adv-x="1091" d="M180.634 606.669c-3.375 0.001-6.536 0.913-9.251 2.504l0.086-0.047-91.648 52.89c-5.548 3.24-9.217 9.166-9.217 15.949 0 10.166 8.241 18.407 18.407 18.407 3.383 0 6.553-0.913 9.278-2.506l-0.087 0.047 91.648-52.89c5.588-3.224 9.289-9.167 9.289-15.975 0-10.151-8.229-18.381-18.381-18.381-0.044 0-0.087 0-0.131 0h0.007z" />
<glyph unicode="&#xe92a;" horiz-adv-x="1091" d="M124.211 395.93h-105.83c-10.166 0-18.406 8.241-18.406 18.406s8.241 18.406 18.406 18.406v0h105.83c10.166 0 18.406-8.241 18.406-18.406s-8.241-18.406-18.406-18.406v0z" />
<glyph unicode="&#xe92b;" horiz-adv-x="1091" d="M1072.896 395.93h-105.779c-10.166 0-18.406 8.241-18.406 18.406s8.241 18.406 18.406 18.406v0h105.779c10.166 0 18.406-8.241 18.406-18.406s-8.241-18.406-18.406-18.406v0z" />
<glyph unicode="&#xe92c;" horiz-adv-x="1091" d="M910.592 606.669c-0.037 0-0.081 0-0.124 0-10.151 0-18.381 8.229-18.381 18.381 0 6.808 3.701 12.751 9.2 15.928l0.089 0.047 91.648 52.89c2.637 1.546 5.807 2.458 9.19 2.458 10.166 0 18.407-8.241 18.407-18.407 0-6.783-3.669-12.709-9.13-15.902l-0.087-0.047-91.648-52.89c-2.629-1.545-5.79-2.457-9.165-2.458v0z" />
<glyph unicode="&#xe92d;" horiz-adv-x="1091" d="M756.326 760.883c-10.15 0.039-18.363 8.276-18.363 18.432 0 3.373 0.906 6.533 2.487 9.253l-0.047-0.088 52.89 91.648c3.24 5.548 9.166 9.217 15.949 9.217 10.166 0 18.407-8.241 18.407-18.407 0-3.383-0.913-6.553-2.506-9.278l0.047 0.087-52.685-91.648c-3.234-5.548-9.155-9.218-15.934-9.218-0.086 0-0.172 0.001-0.258 0.002h0.013z" />
<glyph unicode="&#xe92e;" horiz-adv-x="1091" d="M859.085 262.246h-626.79c-0.013 0-0.028 0-0.043 0-7.543 0-14.025 4.544-16.858 11.043l-0.046 0.119c-18.174 41.529-28.749 89.924-28.749 140.79 0 198.335 160.782 359.117 359.117 359.117s359.117-160.782 359.117-359.117c0-50.866-10.575-99.262-29.647-143.109l0.899 2.319c-2.879-6.618-9.361-11.162-16.904-11.162-0.033 0-0.066 0-0.1 0h0.005zM244.685 299.059h602.010c13.612 34.355 21.504 74.157 21.504 115.803 0 178.145-144.415 322.56-322.56 322.56s-322.56-144.415-322.56-322.56c0-41.645 7.892-81.447 22.262-117.991l-0.758 2.189z" />
<glyph unicode="&#xe92f;" horiz-adv-x="1091" d="M765.491 262.246h-439.808c-0.008 0-0.018 0-0.028 0-6.611 0-12.406 3.49-15.645 8.728l-0.045 0.079c-25.203 40.82-40.136 90.299-40.136 143.266 0 152.3 123.463 275.763 275.763 275.763 77.882 0 148.224-32.286 198.37-84.204l0.077-0.080c3.203-3.309 5.177-7.824 5.177-12.8 0-10.169-8.243-18.412-18.412-18.412-5.193 0-9.883 2.15-13.23 5.607l-0.005 0.005c-43.519 45.058-104.471 73.035-171.957 73.035-131.969 0-238.95-106.982-238.95-238.95 0-42.315 10.999-82.061 30.294-116.534l-0.621 1.208h418.406c18.656 33.219 29.645 72.911 29.645 115.17 0 0.046 0 0.093 0 0.139v-0.007c-0.013 14.481-1.298 28.652-3.748 42.421l0.215-1.461c-0.173 0.947-0.271 2.036-0.271 3.149 0 10.16 8.236 18.396 18.396 18.396 9.047 0 16.569-6.531 18.108-15.136l0.017-0.111c2.599-14.266 4.089-30.688 4.096-47.456v-0.006c0-0.073 0-0.158 0-0.244 0-52.918-14.936-102.347-40.822-144.303l0.681 1.186c-3.332-5.114-9.024-8.448-15.494-8.448-0.025 0-0.050 0-0.075 0h0.004z" />
<glyph unicode="&#xe930;" horiz-adv-x="1091" d="M799.13 440.269c-9.082 0.003-16.624 6.592-18.109 15.251l-0.015 0.109c-5.499 31.145-16.337 58.941-31.613 83.708l0.586-1.020c-1.679 2.721-2.673 6.019-2.673 9.549 0 10.157 8.234 18.392 18.392 18.392 6.627 0 12.436-3.505 15.673-8.763l0.046-0.080c16.968-27.422 29.486-59.521 35.596-93.837l0.244-1.651c0.17-0.939 0.267-2.020 0.267-3.123 0-10.18-8.252-18.432-18.432-18.432-0.004 0-0.007 0-0.011 0h0.001z" />
<glyph unicode="&#xe931;" horiz-adv-x="1091" d="M1072.845 262.451h-1054.464c-10.166 0-18.406 8.241-18.406 18.406s8.241 18.406 18.406 18.406v0h1054.72c10.166 0 18.406-8.241 18.406-18.406s-8.241-18.406-18.406-18.406v0z" />
<glyph unicode="&#xe932;" horiz-adv-x="1091" d="M1008.282 153.498h-62.106c-10.166 0-18.406 8.241-18.406 18.406s8.241 18.406 18.406 18.406v0h62.054c10.166 0 18.406-8.241 18.406-18.406s-8.241-18.406-18.406-18.406v0z" />
<glyph unicode="&#xe933;" horiz-adv-x="1091" d="M886.374 153.498h-803.379c-10.166 0-18.406 8.241-18.406 18.406s8.241 18.406 18.406 18.406v0h803.328c10.166 0 18.406-8.241 18.406-18.406s-8.241-18.406-18.406-18.406v0z" />
<glyph unicode="&#xe934;" horiz-adv-x="1091" d="M922.163 44.749h-512c-10.166 0-18.406 8.241-18.406 18.406s8.241 18.406 18.406 18.406v0h512c10.166 0 18.406-8.241 18.406-18.406s-8.241-18.406-18.406-18.406v0z" />
<glyph unicode="&#xe935;" horiz-adv-x="1091" d="M348.058 44.749h-179.2c-10.166 0-18.406 8.241-18.406 18.406s8.241 18.406 18.406 18.406v0h179.2c10.166 0 18.406-8.241 18.406-18.406s-8.241-18.406-18.406-18.406v0z" />
<glyph unicode="&#xe936;" horiz-adv-x="1091" d="M829.338-64h-207.565c-10.166 0-18.406 8.241-18.406 18.406s8.241 18.406 18.406 18.406v0h207.565c10.166 0 18.406-8.241 18.406-18.406s-8.241-18.406-18.406-18.406v0z" />
<glyph unicode="&#xe937;" horiz-adv-x="1091" d="M557.414-64h-295.475c-10.166 0-18.406 8.241-18.406 18.406s8.241 18.406 18.406 18.406v0h295.475c10.166 0 18.406-8.241 18.406-18.406s-8.241-18.406-18.406-18.406v0z" />
<glyph unicode="&#xe938;" glyph-name="accept-cr" d="M9.424 447.969c0 277.582 225.025 502.608 502.608 502.608s502.608-225.025 502.608-502.608c0-277.582-225.025-502.608-502.608-502.608v0c-277.453 0.321-502.286 225.154-502.607 502.576v0.031zM135.076 447.969c0-208.187 168.769-376.956 376.956-376.956s376.956 168.769 376.956 376.956c0 208.187-168.769 376.956-376.956 376.956v0c-208.187 0-376.956-168.769-376.956-376.956v0zM404.788 277.899l-125.652 125.652c-11.833 11.44-19.18 27.457-19.18 45.19 0 34.698 28.128 62.826 62.826 62.826 17.733 0 33.75-7.347 45.173-19.162l0.017-0.018 81.234-81.234 206.886 206.886c11.286 10.912 26.681 17.636 43.646 17.636 34.698 0 62.826-28.128 62.826-62.826 0-16.965-6.724-32.359-17.653-43.664l0.017 0.018-251.304-251.304c-11.369-11.365-27.072-18.395-44.418-18.395s-33.049 7.029-44.418 18.395v0z" />
<glyph unicode="&#xe939;" glyph-name="no_cr" d="M9.424 447.969c0 277.582 225.025 502.608 502.608 502.608s502.608-225.025 502.608-502.608c0-277.582-225.025-502.608-502.608-502.608v0c-277.453 0.321-502.286 225.154-502.607 502.576v0.031zM135.076 447.969c0-208.187 168.769-376.956 376.956-376.956s376.956 168.769 376.956 376.956c0 208.187-168.769 376.956-376.956 376.956v0c-208.187 0-376.956-168.769-376.956-376.956v0zM600.804 270.234l-88.773 88.899-88.836-88.836c-11.286-10.912-26.681-17.636-43.646-17.636-34.698 0-62.826 28.128-62.826 62.826 0 16.965 6.724 32.359 17.653 43.664l-0.017-0.018 88.836 88.836-88.836 88.836c-11.381 11.373-18.421 27.089-18.421 44.449 0 34.705 28.134 62.839 62.839 62.839 17.345 0 33.048-7.027 44.418-18.39v0l88.836-88.899 88.836 88.899c11.37 11.362 27.073 18.389 44.418 18.389 34.705 0 62.839-28.134 62.839-62.839 0-17.36-7.040-33.076-18.42-44.449l-88.836-88.836 88.836-88.899c11.833-11.44 19.18-27.457 19.18-45.19 0-34.698-28.128-62.826-62.826-62.826-17.733 0-33.75 7.347-45.173 19.162l-0.017 0.018z" />
<glyph unicode="&#xe93a;" glyph-name="budget" horiz-adv-x="1022" d="M90.482 313.998c0.016-13.802 11.201-24.987 25.001-25.003h73.417c13.802 0.016 24.987 11.201 25.003 25.001v53.79c-0.016 13.802-11.201 24.987-25.001 25.003h-73.417c-13.802-0.016-24.987-11.201-25.003-25.001v-0.002zM120.491 362.78h63.516v-43.804h-63.516zM288.711 439.012h74.581c13.802 0.016 24.987 11.201 25.003 25.001v53.79c-0.016 13.802-11.201 24.987-25.001 25.003h-74.583c-13.802-0.016-24.987-11.201-25.003-25.001v-53.79c0.016-13.802 11.201-24.987 25.001-25.003h0.002zM293.717 512.796h64.569v-43.804h-64.569zM115.484 439.012h73.415c13.802 0.016 24.987 11.201 25.003 25.001v53.79c-0.016 13.802-11.201 24.987-25.001 25.003h-73.417c-13.802-0.016-24.987-11.201-25.003-25.001v-53.79c0.016-13.802 11.201-24.987 25.001-25.003h0.002zM120.491 512.796h63.516v-43.804h-63.516zM996.978 319.004h-39.452v147.001c0 8.279-6.711 14.99-14.99 14.99v0 0c-8.279 0-14.99-6.711-14.99-14.99v0-147.001h-365.255v350.663l34.617-21.134c4.698-2.729 10.339-4.339 16.356-4.339s11.657 1.61 16.514 4.424l-0.159-0.085 48.356 29.44c0.291 0.064 0.625 0.1 0.967 0.1s0.676-0.036 0.998-0.106l-0.031 0.006 48.128-29.412c4.698-2.729 10.339-4.339 16.356-4.339s11.657 1.61 16.514 4.424l-0.159-0.085 48.356 29.44c0.291 0.063 0.625 0.099 0.967 0.099s0.676-0.036 0.998-0.104l-0.031 0.006 48.185-29.44c4.698-2.731 10.338-4.343 16.356-4.343s11.658 1.612 16.514 4.428l-0.158-0.085 35.783 21.874v-132.437c0-8.279 6.711-14.99 14.99-14.99v0 0c8.279 0 14.99 6.711 14.99 14.99v0 149.22c0.026 0.379 0.040 0.821 0.040 1.267 0 10.997-8.915 19.911-19.911 19.911-4.275 0-8.236-1.348-11.481-3.641l0.062 0.042-49.863-30.464c-0.286-0.063-0.615-0.098-0.953-0.098s-0.666 0.036-0.984 0.104l0.031-0.006-48.356 29.412c-4.698 2.729-10.339 4.339-16.356 4.339s-11.657-1.61-16.514-4.424l0.159 0.085-48.356-29.44c-0.291-0.064-0.625-0.1-0.967-0.1s-0.676 0.036-0.998 0.106l0.031-0.006-48.1 29.44c-4.698 2.731-10.338 4.343-16.356 4.343s-11.658-1.612-16.514-4.428l0.158 0.085-9.7-5.916v227.186c-0.032 19.32-15.693 34.971-35.014 34.987h-582.771c-0.025 0-0.055 0-0.085 0-19.334 0-35.011-15.657-35.044-34.984v-158.894c0.36-8.009 6.94-14.365 15.004-14.365s14.645 6.357 15.003 14.333l0.001 0.032v158.891c0.032 2.752 2.254 4.974 5.003 5.006h582.887c2.752-0.032 4.974-2.254 5.006-5.003v-245.479l-8.533-5.205c-0.291-0.063-0.625-0.099-0.967-0.099s-0.676 0.036-0.998 0.105l0.031-0.006s-49.55 30.18-50.005 30.407v139.605c-0.016 13.802-11.201 24.987-25.001 25.003h-421.833c-13.802-0.016-24.987-11.201-25.003-25.001v-237.684c0.016-13.802 11.201-24.987 25.001-25.003h416.826v-38.884h-69.291c-13.802-0.016-24.987-11.201-25.003-25.001v-53.79c0.016-13.802 11.201-24.987 25.001-25.003h69.292v-46.194h-68.523c-13.802-0.016-24.987-11.201-25.003-25.001v-48.784h-51.001v48.782c-0.016 13.802-11.201 24.987-25.001 25.003h-73.53c-13.802-0.016-24.987-11.201-25.003-25.001v-53.79c0.020-12.806 9.653-23.357 22.069-24.821l0.118-0.011v-48.185h-170.951c-13.802-0.016-24.987-11.201-25.003-25.001v-53.847c0.016-13.802 11.201-24.987 25.001-25.003h170.924v-52.651h-251.392c-2.759 0.048-4.978 2.296-4.978 5.062 0 0.020 0 0.040 0 0.061v-0.003 608.569c-0.36 8.009-6.94 14.365-15.004 14.365s-14.645-6.357-15.003-14.333l-0.001-0.032v-608.569c0.032-19.31 15.677-34.954 34.984-34.987h251.395v-93.468c0.016-13.802 11.201-24.987 25.001-25.003h310.558c8.009 0.36 14.365 6.94 14.365 15.004s-6.357 14.645-14.333 15.003l-0.032 0.001h-305.522v322.844h675.556v-322.987h-299.804c-8.009-0.36-14.365-6.94-14.365-15.004s6.357-14.645 14.333-15.003l0.032-0.001h304.811c13.802 0.016 24.987 11.201 25.003 25.001v333.001c-0.016 13.802-11.201 24.987-25.001 25.003h-0.002zM286.35 167.14h-165.888v43.861h165.888v-43.861zM120.462 611.669v227.556h411.819v-227.556zM467.996 468.992v43.804h64.284v-43.804zM468.764 362.667h63.516v-43.776h-63.516zM294.229 362.667h63.516v-43.776h-63.516zM890.254 7.168c0.257 30.233 24.825 54.643 55.095 54.643 0.121 0 0.241 0 0.362-0.001h-0.019c8.279 0 14.99 6.711 14.99 14.99v0 101.404c0 8.279-6.711 14.99-14.99 14.99v0c-0.111-0.001-0.241-0.001-0.372-0.001-30.244 0-54.793 24.381-55.066 54.56v0.026c0 8.279-6.711 14.99-14.99 14.99v0h-442.226c-8.279 0-14.99-6.711-14.99-14.99v0c-0.257-30.202-24.8-54.586-55.038-54.586-0.111 0-0.221 0-0.332 0.001h0.017c-8.279 0-14.99-6.711-14.99-14.99v0-101.404c0-8.279 6.711-14.99 14.99-14.99v0c0.085 0 0.185 0.001 0.286 0.001 30.264 0 54.825-24.413 55.067-54.62v-0.023c0-8.279 6.711-14.99 14.99-14.99v0h442.169c0.017 0 0.037 0 0.057 0 8.279 0 14.99 6.711 14.99 14.99 0 0 0 0 0 0v0zM446.72 22.158c-6.733 34.898-33.993 61.91-68.485 68.188l-0.522 0.079v73.956c35.013 6.357 62.274 33.368 68.92 67.73l0.086 0.537h414.891c6.744-34.921 34.043-61.942 68.572-68.189l0.52-0.078v-73.956c-35.049-6.324-62.348-33.346-69.005-67.73l-0.087-0.537h-414.891zM654.251 207.474c-0.008 0-0.018 0-0.028 0-44.191 0-80.014-35.824-80.014-80.014s35.824-80.014 80.014-80.014c44.191 0 80.014 35.824 80.014 80.014 0 0.010 0 0.020 0 0.030v-0.001c-0.065 44.149-35.837 79.921-79.979 79.986h-0.006zM654.251 77.483c-27.617 0-50.005 22.388-50.005 50.005s22.388 50.005 50.005 50.005c27.617 0 50.005-22.388 50.005-50.005v0c-0.032-27.604-22.401-49.973-50.002-50.005h-0.003zM852.878 576.996h-219.022c-8.287 0-15.004-6.718-15.004-15.004s6.718-15.004 15.004-15.004v0h219.022c8.287 0 15.004 6.718 15.004 15.004s-6.718 15.004-15.004 15.004v0zM867.84 480.882c0 8.279-6.711 14.99-14.99 14.99v0h-219.022c-8.287 0-15.004-6.718-15.004-15.004s6.718-15.004 15.004-15.004v0h219.022c0 0 0 0 0 0 8.279 0 14.99 6.711 14.99 14.99 0 0.010 0 0.020 0 0.030v-0.002zM633.884 414.777c-8.287 0-15.004-6.718-15.004-15.004s6.718-15.004 15.004-15.004v0h137.102c8.287 0 15.004 6.718 15.004 15.004s-6.718 15.004-15.004 15.004v0z" />
<glyph unicode="&#xe93b;" glyph-name="promotion" d="M277.106 312.178c5.954 3.516 9.884 9.9 9.884 17.202 0 10.997-8.915 19.911-19.911 19.911s-19.911-8.915-19.911-19.911c0-3.64 0.977-7.051 2.682-9.987l-0.051 0.095c3.498-6.029 9.923-10.019 17.28-10.019 3.694 0 7.154 1.006 10.119 2.759l-0.093-0.051zM277.106 312.178M195.157 174.137l100.722-174.45c14.088-24.080 39.823-39.999 69.276-39.999 44.178 0 79.992 35.813 79.992 79.992 0 14.725-3.979 28.52-10.92 40.37l0.204-0.378-59.989 103.936 51.968 30.009c6.029 3.498 10.019 9.923 10.019 17.28 0 3.694-1.006 7.154-2.759 10.119l0.051-0.093-25.998 45.056 383.090 75.15c31.673 1.808 56.673 27.933 56.673 59.898 0 11.041-2.983 21.385-8.186 30.27l0.153-0.283-66.475 115.115 42.468 64.341c2.082 3.097 3.323 6.91 3.323 11.013 0 3.686-1.002 7.139-2.748 10.1l0.051-0.093-39.993 69.291c-3.502 6.016-9.919 9.995-17.266 9.995-0.44 0-0.877-0.014-1.31-0.042l0.059 0.003-76.942-4.608-73.813 127.801c-10.369 17.913-29.376 29.811-51.176 29.98h-0.792c-0.076 0-0.165 0.001-0.255 0.001-21.052 0-39.549-10.937-50.12-27.439l-0.143-0.238-261.262-332.8-169.87-98.076c-42.149-24.656-70.012-69.701-70.012-121.253 0-77.322 62.682-140.004 140.004-140.004 18.724 0 36.589 3.676 52.913 10.344l-0.935-0.338zM399.815 59.648c3.368-5.736 5.357-12.634 5.357-19.996 0-22.092-17.909-40.002-40.002-40.002-14.73 0-27.601 7.962-34.543 19.817l-0.102 0.189-100.011 173.227 69.291 39.993zM354.446 218.254l-19.911 34.645 34.645 19.911 19.911-34.645zM747.605 690.062l27.648-47.872-24.661-37.319-47.644 82.489zM537.771 834.304c3.549 5.802 9.851 9.616 17.043 9.616 7.343 0 13.758-3.975 17.21-9.891l0.051-0.095 232.619-402.944c1.719-2.884 2.735-6.359 2.735-10.072 0-10.878-8.724-19.719-19.557-19.908h-0.018c-4.117-0.382-7.856-1.035-11.487-1.958l0.508 0.11-245.959 426.212c5.177 6.628 5.831 7.282 6.855 8.932zM504.292 791.438l231.196-400.441-348.928-68.409-106.098 183.751zM56.604 254.037c-8.42 14.335-13.393 31.573-13.393 49.973 0 36.807 19.901 68.966 49.529 86.305l0.472 0.255 155.876 89.998 99.982-173.056-155.876-89.998c-14.341-8.404-31.581-13.367-49.98-13.367-36.795 0-68.954 19.847-86.355 49.42l-0.255 0.469zM56.604 254.037M215.154 299.52c-3.498 6.029-9.923 10.019-17.28 10.019-3.694 0-7.154-1.006-10.119-2.759l0.093 0.051-34.645-19.911c-2.873-1.703-6.332-2.709-10.027-2.709-7.357 0-13.782 3.99-17.229 9.924l-0.051 0.095c-3.514 6.033-9.952 10.024-17.323 10.024-11.034 0-19.98-8.945-19.98-19.98 0-3.664 0.986-7.098 2.708-10.051l-0.051 0.095c10.59-18.043 29.895-29.965 51.985-29.965 11.030 0 21.365 2.972 30.249 8.16l-0.285-0.154 34.645 19.911c6.015 3.502 9.994 9.919 9.994 17.266 0 3.677-0.997 7.121-2.735 10.077l0.051-0.093zM215.154 299.52M997.461 841.159l-111.445-62.009c-6.175-3.485-10.276-10.003-10.276-17.479 0-11.048 8.956-20.004 20.004-20.004 3.572 0 6.925 0.936 9.828 2.577l-0.1-0.052 111.445 62.009c6.175 3.485 10.276 10.003 10.276 17.479 0 11.048-8.956 20.004-20.004 20.004-3.572 0-6.925-0.936-9.828-2.577l0.1 0.052zM997.461 841.159M985.771 634.027l-77.284 20.708c-1.553 0.433-3.336 0.682-5.177 0.682-11.043 0-19.996-8.952-19.996-19.996 0-9.202 6.216-16.952 14.678-19.281l0.14-0.033 77.284-20.708c1.553-0.433 3.336-0.682 5.177-0.682 11.043 0 19.996 8.952 19.996 19.996 0 9.202-6.216 16.952-14.678 19.281l-0.14 0.033zM985.771 634.027M791.58 913.806l-20.736-77.284c-0.433-1.553-0.682-3.336-0.682-5.177 0-11.043 8.952-19.996 19.996-19.996 9.202 0 16.952 6.216 19.281 14.678l0.033 0.14 20.651 77.284c0.433 1.553 0.682 3.336 0.682 5.177 0 11.043-8.952 19.996-19.996 19.996-9.202 0-16.952-6.216-19.281-14.678l-0.033-0.14zM791.58 913.806" />
<glyph unicode="&#xe93c;" glyph-name="briefcase" d="M977.436 400.156c-0.394 0.025-0.855 0.040-1.32 0.040-12.143 0-21.988-9.844-21.988-21.988 0-0.464 0.014-0.925 0.043-1.382l-0.003 0.063v-302.535c0.025-0.394 0.040-0.855 0.040-1.32 0-12.143-9.844-21.988-21.988-21.988-0.464 0-0.925 0.014-1.382 0.043l0.063-0.003h-837.831c-0.394-0.025-0.855-0.040-1.32-0.040-12.143 0-21.988 9.844-21.988 21.988 0 0.464 0.014 0.925 0.043 1.382l-0.003-0.063v302.535c0 12.85-10.417 23.268-23.268 23.268s-23.268-10.417-23.268-23.268v0-302.535c-0.007-0.376-0.012-0.819-0.012-1.263 0-37.875 30.704-68.58 68.58-68.58 0.444 0 0.887 0.004 1.329 0.013l-0.066-0.001h837.803c0.367-0.007 0.8-0.011 1.234-0.011 37.875 0 68.58 30.704 68.58 68.58 0 0.434-0.004 0.867-0.012 1.299l0.001-0.065v302.564c0.025 0.394 0.040 0.855 0.040 1.32 0 12.143-9.844 21.988-21.988 21.988-0.464 0-0.925-0.014-1.382-0.043l0.063 0.003zM954.169 725.988h-884.338c-0.376 0.007-0.819 0.012-1.263 0.012-37.875 0-68.58-30.704-68.58-68.58 0-0.444 0.004-0.887 0.013-1.329l-0.001 0.066v-148.935c0.205-32.613 22.727-59.909 53.053-67.398l0.48-0.1 365.369-81.465v-74.468c-0.025-0.394-0.040-0.855-0.040-1.32 0-12.143 9.844-21.988 21.988-21.988 0.464 0 0.925 0.014 1.382 0.043l-0.063-0.003h139.634c0.394-0.025 0.855-0.040 1.32-0.040 12.143 0 21.988 9.844 21.988 21.988 0 0.464-0.014 0.925-0.043 1.382l0.003-0.063v74.468l365.369 81.465c30.817 7.578 53.352 34.878 53.561 67.475v148.958c0.007 0.376 0.012 0.819 0.012 1.263 0 37.875-30.704 68.58-68.58 68.58-0.444 0-0.887-0.004-1.329-0.013l0.066 0.001zM558.535 307.086h-93.070v93.099h93.099zM977.436 507.221c0.011-0.264 0.017-0.574 0.017-0.886 0-11.116-7.97-20.37-18.507-22.36l-0.142-0.022-353.735-79.132v18.631c0.025 0.394 0.040 0.855 0.040 1.32 0 12.143-9.844 21.988-21.988 21.988-0.464 0-0.925-0.014-1.382-0.043l0.063 0.003h-139.634c-0.394 0.025-0.855 0.040-1.32 0.040-12.143 0-21.988-9.844-21.988-21.988 0-0.464 0.014-0.925 0.043-1.382l-0.003 0.063v-18.631l-353.735 79.132c-10.679 2.012-18.648 11.266-18.648 22.382 0 0.311 0.006 0.622 0.019 0.93l-0.001-0.044v148.935c-0.026 0.404-0.041 0.875-0.041 1.35 0 12.143 9.844 21.988 21.988 21.988 0.475 0 0.946-0.015 1.414-0.045l-0.064 0.003h884.338c0.394 0.025 0.855 0.040 1.32 0.040 12.143 0 21.988-9.844 21.988-21.988 0-0.464-0.014-0.925-0.043-1.382l0.003 0.063zM628.366 888.889h-232.732c-0.376 0.007-0.819 0.012-1.263 0.012-37.875 0-68.58-30.704-68.58-68.58 0-0.444 0.004-0.887 0.013-1.329l-0.001 0.066v-23.268c0-12.85 10.417-23.268 23.268-23.268s23.268 10.417 23.268 23.268v0 23.268c-0.025 0.394-0.040 0.855-0.040 1.32 0 12.143 9.844 21.988 21.988 21.988 0.464 0 0.925-0.014 1.382-0.043l-0.063 0.003h232.732c0.394 0.025 0.855 0.040 1.32 0.040 12.143 0 21.988-9.844 21.988-21.988 0-0.464-0.014-0.925-0.043-1.382l0.003 0.063v-23.268c0-12.85 10.417-23.268 23.268-23.268s23.268 10.417 23.268 23.268v0 23.268c0.007 0.376 0.012 0.818 0.012 1.262 0 37.875-30.704 68.58-68.58 68.58-0.424 0-0.847-0.004-1.27-0.012l0.063 0.001z" />
<glyph unicode="&#xe93d;" glyph-name="reception" d="M1006.933 482.133h-119.467v34.133c0.019 0.289 0.029 0.627 0.029 0.968 0 8.907-7.221 16.128-16.128 16.128-0.34 0-0.678-0.011-1.014-0.031l0.046 0.002v34.133c0.289-0.019 0.627-0.029 0.968-0.029 8.907 0 16.128 7.221 16.128 16.128 0 0.34-0.011 0.678-0.031 1.014l0.002-0.046c0 65.98-53.487 119.467-119.467 119.467s-119.467-53.487-119.467-119.467v0c-0.019-0.289-0.029-0.627-0.029-0.968 0-8.907 7.221-16.128 16.128-16.128 0.34 0 0.678 0.011 1.014 0.031l-0.046-0.002v-34.133c-0.289 0.019-0.627 0.029-0.968 0.029-8.907 0-16.128-7.221-16.128-16.128 0-0.34 0.011-0.678 0.031-1.014l-0.002 0.046v-34.133h-203.093v102.4c-0.020 51.327-25.443 96.712-64.378 124.267l-0.475 0.319c-2.963 1.619-6.49 2.571-10.24 2.571s-7.277-0.952-10.354-2.628l0.114 0.057c-19.268-13.613-43.243-21.759-69.12-21.759s-49.852 8.146-69.5 22.014l0.38-0.254c-2.963 1.619-6.49 2.571-10.24 2.571s-7.277-0.952-10.354-2.628l0.114 0.057c-39.41-27.875-64.833-73.26-64.853-124.584v-102.403h-119.467c-0.289 0.019-0.627 0.029-0.968 0.029-8.907 0-16.128-7.221-16.128-16.128 0-0.34 0.011-0.678 0.031-1.014l-0.002 0.046v-102.4c-0.019-0.289-0.029-0.627-0.029-0.968 0-8.907 7.221-16.128 16.128-16.128 0.34 0 0.678 0.011 1.014 0.031l-0.046-0.002v-358.4c-0.005-0.273-0.008-0.596-0.008-0.919 0-27.774 22.516-50.29 50.29-50.29 0.323 0 0.645 0.003 0.967 0.009l-0.048-0.001h887.467c0.273-0.005 0.596-0.008 0.919-0.008 27.774 0 50.29 22.516 50.29 50.29 0 0.323-0.003 0.645-0.009 0.967l0.001-0.048v358.4c0.289-0.019 0.627-0.029 0.968-0.029 8.907 0 16.128 7.221 16.128 16.128 0 0.34-0.011 0.678-0.031 1.014l0.002-0.046v102.4c0.019 0.289 0.029 0.627 0.029 0.968 0 8.907-7.221 16.128-16.128 16.128-0.34 0-0.678-0.011-1.014-0.031l0.046 0.002zM768 669.867c41.022-0.197 75.228-29.136 83.525-67.702l0.102-0.564h-167.253c8.399 39.13 42.605 68.070 83.605 68.267h0.022zM699.733 567.467h136.533v-34.133h-136.533zM682.667 499.2h170.667v-17.067h-170.667zM290.133 645.973l29.013-30.72-29.013-49.493-29.013 49.493zM170.667 584.533c0.553 35.878 16.2 67.995 40.856 90.36l0.104 0.093c12.172-7.502 26.273-13.494 41.269-17.22l1.028-0.216-26.937-26.937c-3.53-2.917-5.762-7.295-5.762-12.195 0-3.067 0.874-5.929 2.387-8.351l-0.039 0.066 51.2-85.333c3.247-5.157 8.909-8.533 15.36-8.533s12.113 3.376 15.316 8.459l0.044 0.075 51.2 85.333c1.11 2.28 1.758 4.961 1.758 7.793 0 4.94-1.973 9.418-5.175 12.69l-26.934 26.934c16.024 3.942 30.125 9.934 42.947 17.807l-0.65-0.371c24.76-22.459 40.408-54.576 40.959-90.355l0.001-0.098v-102.4h-238.933zM34.133 448h955.733v-68.267h-955.733zM972.8 106.667h-102.4c-9.426 0-17.067-7.641-17.067-17.067s7.641-17.067 17.067-17.067h102.4v-34.133h-102.4c-9.426 0-17.067-7.641-17.067-17.067s7.641-17.067 17.067-17.067h102.4v-17.067c0.019-0.289 0.029-0.627 0.029-0.968 0-8.907-7.221-16.128-16.128-16.128-0.34 0-0.678 0.011-1.014 0.031l0.046-0.002h-887.467c-0.289-0.019-0.627-0.029-0.968-0.029-8.907 0-16.128 7.221-16.128 16.128 0 0.34 0.011 0.678 0.031 1.014l-0.002-0.046v17.067h102.4c9.426 0 17.067 7.641 17.067 17.067s-7.641 17.067-17.067 17.067h-102.4v34.133h102.4c9.426 0 17.067 7.641 17.067 17.067s-7.641 17.067-17.067 17.067h-102.4v238.933h921.6zM290.133 721.067c0.22-0.001 0.481-0.002 0.742-0.002 65.571 0 118.727 53.156 118.727 118.727 0 0.261-0.001 0.521-0.003 0.782v-0.040c0 65.98-53.487 119.467-119.467 119.467s-119.467-53.487-119.467-119.467v0c-0.001-0.22-0.002-0.481-0.002-0.742 0-65.571 53.156-118.727 118.727-118.727 0.261 0 0.521 0.001 0.782 0.003h-0.040zM290.133 925.867c0.246 0.003 0.538 0.004 0.829 0.004 46.673 0 84.508-37.836 84.508-84.508 0-0.291-0.001-0.583-0.004-0.873v0.044c0-47.128-38.205-85.333-85.333-85.333s-85.333 38.205-85.333 85.333v0c-0.003 0.246-0.004 0.538-0.004 0.829 0 46.673 37.836 84.508 84.508 84.508 0.291 0 0.583-0.001 0.873-0.004h-0.044zM494.933 4.267c84.831 0 153.6 68.769 153.6 153.6s-68.769 153.6-153.6 153.6c-84.831 0-153.6-68.769-153.6-153.6v0c-0.001-0.186-0.001-0.407-0.001-0.627 0-84.485 68.489-152.974 152.974-152.974 0.22 0 0.441 0 0.661 0.001h-0.034zM494.933 277.333c65.98 0 119.467-53.487 119.467-119.467s-53.487-119.467-119.467-119.467c-65.98 0-119.467 53.487-119.467 119.467v0c-0.001 0.22-0.002 0.481-0.002 0.742 0 65.571 53.156 118.727 118.727 118.727 0.261 0 0.521-0.001 0.782-0.003h-0.040z" />
<glyph unicode="&#xe93e;" glyph-name="stethoscope" d="M1022.748 385.28c-7.777 52.441-48.711 93.385-100.494 101.097l-0.654 0.080v31.004c0.046 1.388 0.072 3.019 0.072 4.656 0 81.285-64.331 147.544-144.857 150.642l-0.282 0.009c-80.71-3.384-144.884-69.546-145.067-150.737v-0.018h0.996l-0.996-0.171v-336.213c0.090-2.169 0.141-4.714 0.141-7.27 0-100.731-79.334-182.932-178.927-187.53l-0.413-0.015c-100.007 4.614-179.341 86.815-179.341 187.546 0 2.557 0.051 5.102 0.152 7.634l-0.012-0.363v29.127c24.747 0 51.2 17.948 51.2 68.267v42.894c106.035 24.978 184.314 117.229 187.724 228.326l0.009 0.368v35.612h-34.133l-0.711 222.094c-0.221 41.597-30.171 76.134-69.675 83.46l-0.526 0.081c-6.856 20.563-25.93 35.125-48.405 35.125-28.12 0-50.916-22.796-50.916-50.916s22.796-50.916 50.916-50.916c21.275 0 39.502 13.049 47.116 31.579l0.123 0.339c21.48-6.26 36.949-25.67 37.177-48.728v-0.026l0.768-222.009h-34.133v-36.068c-1.422-60.348-42.026-110.838-97.287-127.104l-0.96-0.242c-14.026-4.609-30.169-7.267-46.933-7.267s-32.907 2.658-48.031 7.576l1.098-0.309c-56.1 16.561-96.597 66.98-98.017 127.071l-0.003 0.161v36.096h-51.2v221.867c0.109 23.448 15.963 43.164 37.528 49.124l0.36 0.085c7.718-19.264 26.232-32.622 47.866-32.622 28.403 0 51.428 23.025 51.428 51.428s-23.025 51.428-51.428 51.428c-22.731 0-42.018-14.747-48.814-35.196l-0.105-0.363c-40.48-7.101-70.865-41.943-70.969-83.9v-221.878h-34.133v-35.499c3.369-111.504 81.666-203.803 186.092-228.452l1.641-0.327v-42.923c0-50.318 26.453-68.267 51.2-68.267v-29.127c-0.075-2.159-0.118-4.696-0.118-7.242 0-119.574 94.593-217.055 213.030-221.694l0.422-0.013c118.859 4.652 213.452 102.133 213.452 221.707 0 2.547-0.043 5.084-0.128 7.61l0.010-0.367v335.644c-0.002 0.246-0.003 0.538-0.003 0.83 0 62.443 49.003 113.44 110.652 116.634l0.285 0.012c61.956-3.068 111.027-54.047 111.027-116.488 0-1.648-0.034-3.288-0.102-4.919l0.008 0.233v-30.976c-58.229-8.642-102.398-58.283-102.398-118.241 0-65.98 53.487-119.467 119.467-119.467s119.467 53.487 119.467 119.467c0 6.020-0.445 11.937-1.305 17.718l0.080-0.653zM358.4 863.26c-9.426 0-17.067 7.641-17.067 17.067s7.641 17.067 17.067 17.067c9.426 0 17.067-7.641 17.067-17.067v0c0-9.426-7.641-17.067-17.067-17.067v0zM153.6 897.394c9.426 0 17.067-7.641 17.067-17.067s-7.641-17.067-17.067-17.067c-9.426 0-17.067 7.641-17.067 17.067v0c0 9.426 7.641 17.067 17.067 17.067v0zM34.133 554.724v1.365h51.2v-1.934c1.344-75.451 51.761-138.771 120.627-159.491l1.201-0.31c17.134-5.62 36.853-8.861 57.33-8.861s40.196 3.241 58.673 9.238l-1.343-0.377c70.088 21.005 120.534 84.315 121.911 159.614l0.002 0.158v1.934h34.133v-1.365c-3.737-99.987-77.098-181.783-172.828-198.503l-1.252-0.181c-14.364-3.011-30.87-4.734-47.778-4.734-8.528 0-16.953 0.438-25.255 1.294l1.041-0.087c-9.102 0.888-17.147 2.142-25.037 3.814l1.457-0.258c-96.994 16.881-170.366 98.689-174.069 198.305l-0.011 0.379zM238.933 248.889c-15.36 0-17.067 23.893-17.067 34.133v36.21c1.365-0.171 2.844-0.228 4.153-0.37l5.12-0.484c8.078-0.711 16.213-1.195 24.434-1.223h0.853c8.192 0 16.327 0.484 24.348 1.223l5.262 0.484c1.337 0.142 2.844 0.199 4.096 0.37v-36.21c0-10.24-1.707-34.133-17.067-34.133zM904.533 283.022c-47.128 0-85.333 38.205-85.333 85.333s38.205 85.333 85.333 85.333c47.128 0 85.333-38.205 85.333-85.333v0c0-47.128-38.205-85.333-85.333-85.333v0zM904.533 419.556c-28.277 0-51.2-22.923-51.2-51.2s22.923-51.2 51.2-51.2c28.277 0 51.2 22.923 51.2 51.2v0c0 28.277-22.923 51.2-51.2 51.2v0zM904.533 351.289c-9.426 0-17.067 7.641-17.067 17.067s7.641 17.067 17.067 17.067c9.426 0 17.067-7.641 17.067-17.067v0c0-9.426-7.641-17.067-17.067-17.067v0z" />
<glyph unicode="&#xe93f;" glyph-name="inbox" d="M940.663 876.766l-272.742-857.276-176.333 408.183zM76.527 566.306l400.486-153.907 173.056-400.657c3.078-6.965 9.924-11.738 17.885-11.742h0.973c8.246 0.423 15.106 5.911 17.557 13.396l0.039 0.138 272.725 857.225c0.182 0.779 0.321 1.706 0.389 2.654l0.003 0.060c0.18 0.78 0.314 1.703 0.373 2.646l0.003 0.050c0.002 0.109 0.004 0.238 0.004 0.368 0 1.844-0.263 3.627-0.754 5.313l0.033-0.134c-0.119 0.41 0 0.836-0.154 1.246 0 0-0.102 0.137-0.119 0.222-0.861 2.365-2.070 4.404-3.589 6.17l0.022-0.026c-0.526 0.53-1.082 1.027-1.668 1.489l-0.039 0.029c-0.863 0.914-1.807 1.733-2.826 2.452l-0.059 0.039c-0.273 0.154-0.58 0.188-0.853 0.324-0.701 0.347-1.548 0.688-2.423 0.969l-0.137 0.038c-1.187 0.486-2.576 0.879-4.019 1.112l-0.111 0.015c-0.641 0.082-1.384 0.129-2.137 0.129-0.203 0-0.405-0.003-0.606-0.010l0.029 0.001c-1.632-0.016-3.205-0.232-4.707-0.627l0.133 0.030c-0.529-0.137-1.058 0-1.57-0.188l-857.225-292.198c-7.753-2.686-13.22-9.925-13.22-18.442 0-8.249 5.129-15.299 12.371-18.137l0.132-0.046zM665.156 75.025l-150.391 348.16 383.044 383.181zM867.652 831.283l-380.843-380.894-346.146 133.018zM83.49 0c0.003 0 0.007 0 0.011 0 5.378 0 10.245 2.185 13.761 5.717l272.743 272.76c3.525 3.525 5.705 8.394 5.705 13.773 0 10.757-8.72 19.478-19.478 19.478-5.379 0-10.248-2.18-13.773-5.705l-272.742-272.759c-3.522-3.526-5.7-8.395-5.7-13.773 0-10.758 8.716-19.48 19.472-19.49h0.001zM420.369 169.643l-136.363-136.38c-3.525-3.525-5.705-8.394-5.705-13.773 0-10.757 8.72-19.478 19.478-19.478 5.379 0 10.248 2.18 13.773 5.705l136.363 136.38c3.525 3.525 5.705 8.394 5.705 13.773 0 10.757-8.72 19.478-19.478 19.478-5.379 0-10.248-2.18-13.773-5.705v0zM83.49 214.323c0.008 0 0.018 0 0.028 0 5.369 0 10.229 2.179 13.745 5.7v0l136.363 136.38c3.525 3.525 5.705 8.394 5.705 13.773 0 10.757-8.72 19.478-19.478 19.478-5.379 0-10.248-2.18-13.773-5.705l-136.363-136.38c-3.522-3.526-5.7-8.395-5.7-13.773 0-10.758 8.716-19.48 19.472-19.49h0.001z" />
<glyph unicode="&#xe940;" glyph-name="reminders" d="M214.601 391.582c0 0.038 0 0.082 0 0.127 0 154.683 113.639 282.824 261.986 305.492l1.718 0.216v47.738c0 24.237 19.648 43.886 43.886 43.886s43.886-19.648 43.886-43.886v-47.738c151.389-21.648 266.484-150.437 266.484-306.107 0-170.685-138.368-309.053-309.053-309.053s-309.053 138.368-309.053 309.053c0 0.096 0 0.192 0 0.287v-0.015zM302.373 391.582c0.692-120.85 98.82-218.551 219.767-218.551 121.376 0 219.77 98.394 219.77 219.77 0 121.374-98.392 219.768-219.766 219.77v0c-121.384-0.415-219.625-98.912-219.625-220.354 0-0.223 0-0.446 0.001-0.67v0.034zM522.142 347.404c0 0-0.001 0-0.001 0-24.237 0-43.886 19.648-43.886 43.886 0 0.103 0 0.206 0.001 0.308v-0.016 88.357c0 24.237 19.648 43.886 43.886 43.886s43.886-19.648 43.886-43.886v-44.178h43.886c24.399 0 44.178-19.779 44.178-44.178s-19.779-44.178-44.178-44.178v0zM798.72 625.347l-87.771 88.357c-7.973 8.020-12.901 19.075-12.901 31.281s4.928 23.26 12.903 31.283l-0.002-0.002c7.945 7.959 18.928 12.883 31.061 12.883s23.117-4.924 31.061-12.883l0.001-0.001 87.771-88.357c7.938-8.036 12.841-19.086 12.841-31.281s-4.903-23.245-12.846-31.285l0.004 0.004c-7.947-7.974-18.94-12.908-31.086-12.908s-23.139 4.934-31.084 12.906l-0.001 0.001zM183.394 625.347c-7.973 8.020-12.901 19.075-12.901 31.281s4.928 23.26 12.903 31.283l87.769 88.354c7.947 7.974 18.94 12.908 31.086 12.908s23.139-4.934 31.084-12.906l0.001-0.001c7.938-8.036 12.841-19.086 12.841-31.281s-4.903-23.245-12.846-31.285l0.004 0.004-87.771-88.357c-7.945-7.959-18.928-12.883-31.061-12.883s-23.117 4.924-31.061 12.883l-0.001 0.001z" />
<glyph unicode="&#xe941;" glyph-name="envelope" d="M1024 180.364c-0.154-22.639-6.213-43.831-16.711-62.153l0.327 0.62-323.398 361.844 319.86 279.273c12.433-19.233 19.849-42.722 19.921-67.937v-0.019zM512 414.86l444.975 389.399c-17.558 10.008-38.556 15.963-60.933 16.105h-768.042c-22.419-0.12-43.421-6.078-61.595-16.43l0.621 0.326zM636.090 438.412l-103.052-90.205c-5.602-4.877-12.973-7.85-21.039-7.85s-15.437 2.973-21.077 7.883l0.039-0.033-103.052 90.205-327.401-366.406c19.117-12.288 42.446-19.604 67.481-19.642h768.010c25.045 0.038 48.374 7.354 67.995 19.945l-0.504-0.302zM19.921 759.948c-12.433-19.233-19.849-42.722-19.921-67.937v-512.019c0.162-22.65 6.256-43.843 16.802-62.145l-0.325 0.612 323.212 362.217z" />
<glyph unicode="&#xe942;" glyph-name="call-answer" horiz-adv-x="1026" d="M1003.52 150.426l-158.72 158.208c-14.82 14.223-34.979 22.981-57.185 22.981-23.277 0-44.307-9.624-59.326-25.111l-0.020-0.021-79.872-79.872-15.77 8.806c-73.718 38.408-137.037 84.671-192.437 138.982l0.13-0.127c-54.175 55.324-100.466 118.671-136.861 188.026l-2.096 4.384c-2.97 5.325-5.837 10.24-8.602 15.36l53.555 53.555 26.419 26.829c15.532 15.027 25.174 36.060 25.174 59.344 0 22.214-8.776 42.377-23.049 57.214l0.025-0.027-158.515 158.106c-14.804 14.218-34.947 22.974-57.136 22.974-23.31 0-44.364-9.664-59.372-25.203l-0.023-0.024-44.646-44.954 1.229-1.229c-14.619-18.677-26.997-40.11-36.15-63.175l-0.611-1.747c-7.678-19.139-13.437-41.39-16.256-64.549l-0.128-1.295c-20.992-173.466 58.163-331.981 273.203-547.226 296.96-296.96 537.088-274.944 547.43-273.818 24.533 2.983 46.849 8.813 67.852 17.227l-1.804-0.638c24.733 9.736 46.099 22.080 65.283 37.086l-0.566-0.426 1.024-0.819 45.261 44.339c15.701 15.082 25.456 36.253 25.456 59.702 0 22.175-8.723 42.312-22.925 57.167l0.030-0.031z" />
<glyph unicode="&#xe943;" glyph-name="download" d="M222.793 669.696l44.544-50.688c6.237-7.063 15.313-11.494 25.424-11.494 8.543 0 16.347 3.163 22.304 8.382l-0.039-0.033 132.901 116.443v-482.304c0 0 0 0 0 0 0-18.637 15.088-33.75 33.715-33.792h67.588c18.663 0 33.792 15.129 33.792 33.792v482.743l132.901-116.736c5.919-5.185 13.723-8.349 22.265-8.349 10.111 0 19.187 4.431 25.392 11.457l0.032 0.036 44.325 50.542c5.229 5.931 8.421 13.767 8.421 22.348 0 10.145-4.461 19.248-11.528 25.454l-0.038 0.033-267.337 234.057c-5.92 5.189-13.726 8.354-22.272 8.354s-16.352-3.165-22.311-8.388l0.039 0.033-267.264-234.057c-7.026-6.222-11.432-15.264-11.432-25.336 0-8.656 3.255-16.553 8.608-22.531l-0.028 0.032zM143.506-65.317h743.79c18.663 0 33.792 15.129 33.792 33.792v0 67.657c-0.042 18.646-15.146 33.75-33.788 33.792h-743.794c-18.646-0.042-33.75-15.146-33.792-33.788v-67.661c0-18.663 15.129-33.792 33.792-33.792v0z" />
<glyph unicode="&#xe944;" glyph-name="deleted" d="M256 149.312c0.145-47.058 38.254-85.167 85.298-85.312h341.326c47.058 0.145 85.167 38.254 85.312 85.298v512.014h-512zM341.312 576h341.312v-426.688h-341.312zM661.312 789.312l-42.688 42.688h-213.312l-42.688-42.688h-149.312v-85.312h597.312v85.312z" />
<glyph unicode="&#xe945;" glyph-name="edit" d="M128 223.972v-160.028h160.028l472.178 471.893-160.028 160.028zM883.598 659.627c7.7 7.692 12.463 18.323 12.463 30.066s-4.763 22.374-12.463 30.065v0l-99.84 99.84c-7.692 7.7-18.323 12.463-30.066 12.463s-22.374-4.763-30.065-12.463l-77.938-78.052 159.858-159.915 78.052 78.052z" />
<glyph unicode="&#xe946;" glyph-name="location-details" d="M503.857 651.191v81.237c-0.138 44.82-36.421 81.12-81.222 81.286h-243.826c-44.837-0.138-81.148-36.449-81.286-81.273v-568.869c0.138-44.837 36.449-81.148 81.273-81.286h650.155c44.837 0.138 81.148 36.449 81.286 81.273v406.346c-0.138 44.837-36.449 81.148-81.273 81.286h-0.013zM260.047 163.572h-81.237v81.237h81.237zM260.047 326.095h-81.237v81.286h81.237zM260.047 488.619h-81.237v81.286h81.237zM260.047 651.142h-81.237v81.286h81.237zM422.571 163.523h-81.237v81.286h81.286zM422.571 326.046h-81.237v81.335h81.286zM422.571 488.57h-81.237v81.335h81.286zM422.571 651.093h-81.237v81.335h81.286zM788.285 163.474h-284.428v81.335h81.286v81.286h-81.286v81.286h81.286v81.237h-81.286v81.286h284.428c22.421-0.055 40.584-18.202 40.667-40.611v-325.104c-0.083-22.4-18.219-40.536-40.611-40.619h-0.008zM747.666 488.57h-81.237v-81.286h81.286zM747.666 326.046h-81.237v-81.286h81.286z" />
<glyph unicode="&#xe947;" glyph-name="schedule" d="M682.667 405.333h-128c-23.538-0.065-42.602-19.129-42.667-42.66v-128.006c0.065-23.538 19.129-42.602 42.66-42.667h128.006c23.538 0.065 42.602 19.129 42.667 42.66v128.006c-0.065 23.538-19.129 42.602-42.66 42.667h-0.006zM682.667 832v-42.667h-341.333v42.667c0 23.564-19.103 42.667-42.667 42.667s-42.667-19.103-42.667-42.667v0-42.667h-42.667c0 0-0.001 0-0.001 0-46.908 0-84.935-38.027-84.935-84.935 0-0.14 0-0.28 0.001-0.42v0.022l-0.398-597.333c0-47.128 38.205-85.333 85.333-85.333v0h597.333c47.128 0 85.333 38.205 85.333 85.333v0 597.333c0 47.128-38.205 85.333-85.333 85.333v0h-42.667v42.667c0 23.564-19.103 42.667-42.667 42.667s-42.667-19.103-42.667-42.667v0zM768 106.667h-512c-23.538 0.065-42.602 19.129-42.667 42.66v426.673h597.333v-426.667c-0.065-23.538-19.129-42.602-42.66-42.667h-0.006z" />
<glyph unicode="&#xe948;" glyph-name="billing" d="M896 649.387v97.28c0 47.128-38.205 85.333-85.333 85.333v0h-597.333c-47.128 0-85.333-38.205-85.333-85.333v0-597.333c0-47.128 38.205-85.333 85.333-85.333v0h597.333c47.128 0 85.333 38.205 85.333 85.333v0 97.28c25.542 14.943 42.472 42.166 42.667 73.359v256.028c-0.194 31.22-17.125 58.443-42.264 73.169l-0.403 0.218zM853.333 576v-256h-298.667v256zM213.333 149.333v597.333h597.333v-85.333h-256c-47.128 0-85.333-38.205-85.333-85.333v0-256c0-47.128 38.205-85.333 85.333-85.333v0h256v-85.333zM746.667 448c0-35.346-28.654-64-64-64s-64 28.654-64 64c0 35.346 28.654 64 64 64s64-28.654 64-64z" />
<glyph unicode="&#xe949;" glyph-name="patients" d="M384 458.638c-29.471 0-53.362-23.891-53.362-53.362s23.891-53.362 53.362-53.362c29.471 0 53.362 23.891 53.362 53.362v0c0 29.471-23.891 53.362-53.362 53.362v0zM640 458.638c-29.471 0-53.362-23.891-53.362-53.362s23.891-53.362 53.362-53.362c29.471 0 53.362 23.891 53.362 53.362v0c0 29.471-23.891 53.362-53.362 53.362v0zM512 874.667c-235.641 0-426.667-191.025-426.667-426.667s191.025-426.667 426.667-426.667c235.641 0 426.667 191.025 426.667 426.667v0c0 235.641-191.025 426.667-426.667 426.667v0zM512 106.667c-188.409 0.259-341.074 152.924-341.333 341.308v0.025c0.076 13.018 0.86 25.762 2.313 38.302l-0.152-1.609c100.948 45.799 179.391 126.455 221.212 226.26l1.052 2.831c78.010-109.729 204.68-180.452 347.868-180.452 0.103 0 0.206 0 0.309 0h-0.016c34.099 0.055 67.203 4.2 98.884 11.97l-2.855-0.592c8.986-29.103 14.161-62.559 14.161-97.224 0-188.23-152.591-340.821-340.821-340.821-0.219 0-0.437 0-0.656 0.001h0.034z" />
<glyph unicode="&#xe94a;" glyph-name="settings" d="M828.985 406.187c1.771 12.464 2.843 26.957 2.957 41.678l0.001 0.135c-0.116 14.856-1.187 29.349-3.156 43.555l0.198-1.742 90.055 70.372c4.856 3.974 7.93 9.967 7.93 16.678 0 3.909-1.043 7.574-2.865 10.732l0.055-0.104-85.333 147.911c-3.761 6.407-10.616 10.641-18.46 10.641-0.11 0-0.22-0.001-0.33-0.002h0.017c-0.054 0.001-0.117 0.001-0.181 0.001-2.553 0-4.994-0.48-7.236-1.356l0.136 0.047-106.212-42.667c-20.818 16.253-44.588 30.268-70.083 40.991l-2.052 0.766-16.213 113.095c-1.548 10.103-10.178 17.751-20.594 17.751-0.1 0-0.2-0.001-0.3-0.002h-170.652c-0.077 0.001-0.168 0.002-0.26 0.002-10.476 0-19.146-7.737-20.605-17.809l-0.013-0.112-16.27-112.924c-27.516-11.716-51.247-25.732-72.844-42.38l0.765 0.567-106.268 42.496c-2.287 0.811-4.924 1.289-7.671 1.308h-0.009c-7.813-0.016-14.627-4.274-18.264-10.593l-0.054-0.102-85.333-147.627c-1.851-3.070-2.946-6.777-2.946-10.739 0-6.706 3.136-12.679 8.021-16.534l0.045-0.034 90.283-70.372c-1.771-12.431-2.862-26.919-3.014-41.632l-0.001-0.181c0.153-14.894 1.244-29.382 3.217-43.588l-0.202 1.775-90.283-70.372c-4.856-3.974-7.93-9.967-7.93-16.678 0-3.909 1.043-7.574 2.865-10.732l-0.055 0.104 85.333-147.911c3.753-6.439 10.626-10.697 18.493-10.697 0.099 0 0.197 0.001 0.296 0.002h-0.015c0.054-0.001 0.117-0.001 0.181-0.001 2.553 0 4.994 0.48 7.236 1.356l-0.136-0.047 106.268 42.667c20.818-16.275 44.588-30.308 70.085-41.047l2.050-0.766 16.1-112.811c1.472-10.185 10.142-17.922 20.619-17.922 0.111 0 0.222 0.001 0.333 0.003h170.65c0.077-0.001 0.168-0.002 0.26-0.002 10.476 0 19.146 7.737 20.605 17.809l0.013 0.112 16.213 112.924c27.539 11.712 51.288 25.728 72.902 42.381l-0.767-0.568 106.212-42.667c2.287-0.811 4.924-1.289 7.671-1.308h0.009c0.014 0 0.031 0 0.048 0 7.806 0 14.621 4.237 18.273 10.537l0.054 0.101 85.333 147.911c1.767 3.055 2.81 6.72 2.81 10.628 0 6.711-3.075 12.705-7.892 16.648l-0.038 0.030zM744.505 479.175c1.34-9.285 2.105-20.007 2.105-30.908 0-0.094 0-0.188 0-0.282v0.014c0-8.988-0.853-18.375-2.105-31.118l-5.689-48.185 37.945-29.867 46.080-35.84-29.867-51.655-54.158 21.732-44.373 17.92-38.4-29.013c-15.418-11.882-32.958-22.303-51.696-30.492l-1.609-0.627-45.227-18.375-6.827-48.185-8.533-57.628h-60.018l-8.135 57.628-6.827 48.185-45.227 18.375c-20.024 8.518-37.29 18.662-53.037 30.694l0.585-0.429-38.855 29.867-99.669-40.050-29.867 51.598 46.080 35.84 37.945 29.867-5.689 48.185c-1.308 13.255-2.162 22.756-2.162 31.573s0.853 18.375 2.162 31.175l5.689 48.185-37.66 29.867-46.080 35.84 29.867 51.598 54.158-21.732 44.373-17.92 38.4 29.013c15.433 11.886 32.993 22.307 51.752 30.492l1.61 0.626 45.511 18.375 6.827 48.185 8.249 57.628h59.335l8.078-57.628 6.827-48.185 45.511-18.375c20.046-8.514 37.332-18.658 53.095-30.695l-0.587 0.43 38.798-29.867 45.511 18.375 54.215 21.732 29.867-51.655-45.511-36.238-37.945-29.867 5.689-48.185zM512 618.667c-94.257 0-170.667-76.41-170.667-170.667s76.41-170.667 170.667-170.667c94.257 0 170.667 76.41 170.667 170.667v0c0 94.257-76.41 170.667-170.667 170.667v0zM512 362.667c-47.128 0-85.333 38.205-85.333 85.333s38.205 85.333 85.333 85.333c47.128 0 85.333-38.205 85.333-85.333v0c0-47.128-38.205-85.333-85.333-85.333v0z" />
</font>
</defs>
</svg>
